<svg width="18" height="17" viewBox="0 0 18 17" fill="none" xmlns="http://www.w3.org/2000/svg">
<path d="M9.23063 5.66033C7.66985 5.66033 6.39614 6.93226 6.39614 8.49084C6.39614 10.0494 7.66985 11.3214 9.23063 11.3214C10.7914 11.3214 12.0651 10.0494 12.0651 8.49084C12.0651 6.93226 10.7914 5.66033 9.23063 5.66033ZM17.732 8.49084C17.732 7.31872 17.7426 6.15721 17.6767 4.98721C17.6108 3.62823 17.3003 2.42213 16.3052 1.42837C15.3079 0.432491 14.1022 0.124596 12.7413 0.05877C11.5675 -0.00705581 10.4044 0.00356128 9.23275 0.00356128C8.05898 0.00356128 6.89584 -0.00705581 5.7242 0.05877C4.3633 0.124596 3.15551 0.434614 2.16036 1.42837C1.16307 2.42425 0.854747 3.62823 0.788829 4.98721C0.722911 6.15934 0.733543 7.32084 0.733543 8.49084C0.733543 9.66085 0.722911 10.8245 0.788829 11.9945C0.854747 13.3535 1.1652 14.5596 2.16036 15.5533C3.15764 16.5492 4.3633 16.8571 5.7242 16.9229C6.89797 16.9887 8.06111 16.9781 9.23275 16.9781C10.4065 16.9781 11.5697 16.9887 12.7413 16.9229C14.1022 16.8571 15.31 16.5471 16.3052 15.5533C17.3024 14.5574 17.6108 13.3535 17.6767 11.9945C17.7447 10.8245 17.732 9.66297 17.732 8.49084ZM9.23063 12.846C6.81716 12.846 4.86939 10.9009 4.86939 8.49084C4.86939 6.08077 6.81716 4.13572 9.23063 4.13572C11.6441 4.13572 13.5919 6.08077 13.5919 8.49084C13.5919 10.9009 11.6441 12.846 9.23063 12.846ZM13.7705 4.97447C13.207 4.97447 12.7519 4.52006 12.7519 3.95736C12.7519 3.39465 13.207 2.94024 13.7705 2.94024C14.334 2.94024 14.789 3.39465 14.789 3.95736C14.7892 4.09097 14.763 4.22331 14.7118 4.34679C14.6607 4.47027 14.5857 4.58246 14.4911 4.67694C14.3965 4.77142 14.2841 4.84633 14.1605 4.89739C14.0368 4.94845 13.9043 4.97464 13.7705 4.97447Z" fill="white"/>
</svg>
