<svg width="106" height="105" viewBox="0 0 106 105" fill="none" xmlns="http://www.w3.org/2000/svg">
<path opacity="0.25" d="M34.1113 62.9485C34.1113 62.9485 32.2073 58.1431 32.2073 56.45C32.2073 54.7569 34.1113 49.9502 34.1113 49.9502C34.1113 49.9502 29.304 51.8539 27.6107 51.8539C25.9174 51.8539 21.1113 49.9502 21.1113 49.9502C21.1113 49.9502 23.0153 54.7569 23.0153 56.45C23.0153 58.1431 21.1113 62.9485 21.1113 62.9485C21.1113 62.9485 25.9187 61.0448 27.6107 61.0448C29.3027 61.0448 34.1113 62.9485 34.1113 62.9485Z" fill="white"/>
<path style="mix-blend-mode:screen" opacity="0.5" d="M50.1113 58.9492C50.755 59.283 51.4258 59.5282 52.1119 59.6804C52.7976 59.528 53.468 59.2828 54.1113 58.9492C53.7294 59.6956 53.5264 60.5632 53.5264 61.4492C53.5264 62.3353 53.7294 63.2028 54.1113 63.9492C53.4681 63.6149 52.7977 63.3692 52.1119 63.2165C51.4257 63.3691 50.7549 63.6148 50.1113 63.9492C50.4941 63.2032 50.6976 62.3355 50.6976 61.4492C50.6976 60.5629 50.4941 59.6953 50.1113 58.9492Z" fill="url(#paint0_radial)"/>
<path d="M82.7003 59.4073C86.3636 43.1303 76.1364 26.9658 59.8572 23.303C43.5781 19.6402 27.4115 29.866 23.7482 46.1431C20.0849 62.4201 30.3121 78.5845 46.5913 82.2473C62.8704 85.9102 79.037 75.6843 82.7003 59.4073Z" fill="url(#paint1_radial)"/>
<g style="mix-blend-mode:screen" opacity="0.45">
<path d="M24.6179 55.9369C24.2758 50.0172 25.7237 44.1307 28.7773 39.0265C31.831 33.9222 36.3524 29.831 41.7663 27.2734C47.1801 24.7158 53.2416 23.8073 59.1795 24.6637C65.1174 25.5201 70.6632 28.1026 75.1113 32.0825C72.2955 29.2001 68.9218 26.9065 65.1909 25.3383C61.46 23.77 57.448 22.959 53.3935 22.9536C49.339 22.9482 45.3248 23.7485 41.5896 25.3068C37.8544 26.8651 34.4745 29.1497 31.6508 32.0246C28.8271 34.8996 26.6174 38.3062 25.1529 42.042C23.6884 45.7778 22.9992 49.7664 23.1262 53.7707C23.2531 57.7749 24.1937 61.713 25.8919 65.3509C27.5901 68.9888 30.0114 72.2521 33.0116 74.9468C27.9971 69.8098 25.0181 63.0631 24.6179 55.9369Z" fill="#E0A326"/>
</g>
<g style="mix-blend-mode:screen" opacity="0.45">
<path d="M36.6605 69.6057C36.3657 64.3667 37.5958 59.1555 40.1975 54.6219C42.7992 50.0883 46.6574 46.4329 51.2909 44.1116C55.9243 41.7903 61.1281 40.9058 66.2532 41.5683C71.3784 42.2309 76.1981 44.4112 80.1113 47.8374C79.2001 43.7085 77.3368 39.8583 74.6747 36.6035C72.0127 33.3486 68.6279 30.7822 64.7988 29.1151C60.9697 27.4481 56.8057 26.7281 52.6492 27.0144C48.4927 27.3007 44.4625 28.5851 40.8901 30.762C37.3177 32.9388 34.3051 35.946 32.1001 39.5361C29.895 43.1262 28.5606 47.1966 28.2066 51.4127C27.8525 55.6288 28.4889 59.87 30.0634 63.7875C31.6379 67.705 34.1056 71.187 37.2634 73.9469C36.947 72.5188 36.7454 71.067 36.6605 69.6057Z" fill="#E0A326"/>
</g>
<path style="mix-blend-mode:multiply" opacity="0.5" d="M70.3643 27.9531C72.6951 34.1338 72.7463 40.952 70.5085 47.1675C68.2708 53.383 63.8927 58.583 58.1706 61.8219C52.4485 65.0607 45.7625 66.1231 39.3285 64.816C32.8945 63.5089 27.1399 59.919 23.1113 54.6992C23.4478 59.7985 25.0612 64.7288 27.8009 69.0301C30.5406 73.3313 34.3173 76.8634 38.7787 79.2967C43.2401 81.7299 48.2407 82.985 53.3139 82.945C58.387 82.9049 63.3675 81.5709 67.7904 79.0674C72.2133 76.5639 75.9346 72.9726 78.607 68.6286C81.2794 64.2845 82.8158 59.3293 83.0728 54.2254C83.3298 49.1214 82.299 44.0351 80.0768 39.4409C77.8545 34.8468 74.513 30.8946 70.3643 27.9531Z" fill="url(#paint2_radial)"/>
<path style="mix-blend-mode:multiply" opacity="0.5" d="M78.1124 38.9517C80.8859 45.6024 81.0255 53.0525 78.5029 59.8016C75.9803 66.5507 70.9831 72.0975 64.5174 75.325C58.0518 78.5524 50.5981 79.2208 43.6574 77.1954C36.7166 75.1701 30.8044 70.6015 27.1113 64.4097C28.619 68.018 30.8565 71.2786 33.6846 73.9886C36.5127 76.6985 39.8708 78.7998 43.5499 80.1615C47.2289 81.5233 51.1502 82.1164 55.0694 81.9039C58.9887 81.6914 62.8221 80.6778 66.3309 78.9264C69.8397 77.1749 72.9488 74.723 75.4646 71.7233C77.9804 68.7236 79.8491 65.2404 80.9543 61.4905C82.0595 57.7406 82.3775 53.8043 81.8886 49.9267C81.3997 46.0491 80.1143 42.3132 78.1124 38.9517Z" fill="url(#paint3_radial)"/>
<path style="mix-blend-mode:multiply" opacity="0.5" d="M71.876 37.3586C70.7798 40.6842 66.1675 42.1353 61.5746 40.6018C56.9817 39.0682 54.1462 35.1317 55.2423 31.8074C56.3385 28.4831 60.9494 27.0306 65.5423 28.5642C70.1352 30.0977 72.9721 34.0385 71.876 37.3586ZM52.957 38.1344C50.8454 37.4355 48.7239 38.0967 48.2196 39.626C47.7153 41.1553 49.0198 42.9657 51.1371 43.6702C53.2543 44.3748 55.3702 43.708 55.8745 42.1786C56.3788 40.6493 55.0687 38.8432 52.957 38.1386V38.1344Z" fill="url(#paint4_radial)"/>
<path style="mix-blend-mode:multiply" opacity="0.5" d="M53.0351 38.2268C50.8842 37.536 48.7235 38.1895 48.2098 39.7009C48.1385 39.9243 48.1055 40.1577 48.1122 40.3916C48.6938 39.8761 49.4135 39.5327 50.1874 39.4013C50.9613 39.27 51.7575 39.3562 52.4832 39.6498C53.274 39.837 53.9888 40.2519 54.5351 40.8407C55.0814 41.4295 55.4338 42.1649 55.5468 42.9517C55.7472 42.74 55.9017 42.4909 56.001 42.2194C56.5146 40.7121 55.1859 38.9231 53.0351 38.2268Z" fill="url(#paint5_radial)"/>
<path style="mix-blend-mode:multiply" opacity="0.5" d="M65.5501 28.61C60.9628 26.9618 56.356 28.5231 55.2626 32.0862C55.1993 32.2937 55.1488 32.5054 55.1113 32.72C56.6599 29.8207 60.8379 28.664 65.009 30.1578C69.3285 31.7042 72.0857 35.5339 71.4849 38.9517C71.6433 38.6614 71.7744 38.3547 71.8762 38.0362C72.971 34.4731 70.1389 30.2537 65.5501 28.61Z" fill="url(#paint6_radial)"/>
<path style="mix-blend-mode:multiply" opacity="0.5" d="M64.111 71.0434C64.0726 73.8034 60.9079 75.9982 57.0417 75.946C53.1756 75.8939 50.0733 73.6117 50.1117 70.8503C50.15 68.0889 53.3147 65.8956 57.1809 65.9492C61.047 66.0028 64.1507 68.2778 64.111 71.0434Z" fill="url(#paint7_radial)"/>
<path style="mix-blend-mode:multiply" opacity="0.5" d="M63.4668 68.9478C63.4816 69.0858 63.4891 69.2247 63.4892 69.3636C63.4536 72.0793 60.5083 74.2376 56.912 74.185C55.8008 74.2256 54.6962 73.9901 53.6882 73.4977C52.6802 73.0053 51.7972 72.2699 51.1113 71.3515C51.3583 73.8758 54.1252 75.897 57.5354 75.9469C61.1317 75.9981 64.0757 73.8398 64.1113 71.1255C64.1136 70.3475 63.8887 69.5875 63.4668 68.9478Z" fill="url(#paint8_radial)"/>
<path style="mix-blend-mode:multiply" opacity="0.5" d="M79.3348 49.6068C81.2954 50.2924 81.6944 54.6047 80.225 59.2381C78.7556 63.8715 75.9756 67.0721 74.015 66.3879C72.0544 65.7038 71.6567 61.3901 73.1261 56.7567C74.5956 52.1233 77.3742 48.9213 79.3348 49.6068ZM72.5442 70.4466C71.3364 71.6929 70.7839 73.1607 71.311 73.7257C71.8382 74.2906 73.2462 73.7369 74.4541 72.4905C75.6619 71.2442 76.2144 69.775 75.6873 69.2114C75.1601 68.6479 73.7521 69.2002 72.5442 70.4466ZM76.1984 43.7888C76.767 46.1721 78.0482 47.9021 79.0599 47.6371C80.0715 47.3722 80.4305 45.2174 79.8606 42.8271C79.2908 40.4368 78.0109 38.7124 76.9992 38.9788C75.9876 39.2452 75.6299 41.3971 76.1984 43.7944V43.7888ZM72.9767 48.5708C72.3534 50.2251 72.4161 51.8023 73.1101 52.0939C73.8041 52.3855 74.8838 51.2793 75.5124 49.6251C76.141 47.9708 76.0743 46.3936 75.379 46.1034C74.6836 45.8132 73.5999 46.9165 72.9767 48.5708Z" fill="url(#paint9_radial)"/>
<path style="mix-blend-mode:multiply" opacity="0.5" d="M78.3576 42.7583C78.9875 45.0477 78.6566 47.1081 77.6446 47.6185C77.8036 47.7474 77.9923 47.8426 78.1969 47.8973C78.4015 47.952 78.617 47.9647 78.8277 47.9345C80.0396 47.6591 80.4696 45.4319 79.7869 42.9598C79.1042 40.4877 77.571 38.7042 76.3591 38.9797C76.2716 39.0077 76.1883 39.0457 76.1113 39.0928C77.2712 40.0667 78.0582 41.3508 78.3576 42.7583Z" fill="url(#paint10_radial)"/>
<path style="mix-blend-mode:multiply" opacity="0.5" d="M74.067 49.2738C73.6948 50.1699 73.0151 50.9564 72.1113 51.5366C72.2066 51.6988 72.3665 51.829 72.5639 51.905C73.4407 52.1916 74.7834 51.1004 75.57 49.4662C76.3566 47.8321 76.2731 46.2742 75.403 45.9875C75.2251 45.9454 75.0377 45.9393 74.8564 45.9697C74.675 46 74.5051 46.066 74.3609 46.162C74.7582 47.1912 74.6526 48.3085 74.067 49.2738Z" fill="url(#paint11_radial)"/>
<path style="mix-blend-mode:multiply" opacity="0.5" d="M73.9515 69.0602C74.3163 69.6751 73.8452 71.0773 72.8431 72.2831C72.3593 72.8939 71.7666 73.3594 71.1113 73.643C71.1234 73.672 71.1373 73.6999 71.1529 73.7263C71.6147 74.2918 72.827 73.7376 73.8718 72.481C74.9166 71.2243 75.3946 69.7429 74.9386 69.1747C74.7972 69.0497 74.6313 68.9732 74.4577 68.9531C74.2842 68.933 74.1094 68.9699 73.9515 69.0602Z" fill="url(#paint12_radial)"/>
<path style="mix-blend-mode:multiply" opacity="0.5" d="M79.1881 50.0325C78.873 49.9423 78.5382 49.9259 78.2144 49.9849C80.055 50.9307 80.3642 54.7945 78.8587 58.9361C77.4992 62.673 75.1023 65.4177 73.1113 65.7286C73.2124 65.7819 73.3188 65.8262 73.4292 65.8609C75.5516 66.5077 78.5611 63.4878 80.1518 59.1147C81.7426 54.7416 81.3106 50.6794 79.1881 50.0325Z" fill="url(#paint13_radial)"/>
<path style="mix-blend-mode:multiply" opacity="0.5" d="M40.6842 29.4569C42.3463 30.7327 41.4934 34.9758 38.7793 38.9326C36.0653 42.8893 32.5182 45.0635 30.8561 43.7876C29.1939 42.5118 30.0455 38.2686 32.7596 34.3105C35.4736 30.3523 39.0208 28.1796 40.6842 29.4569ZM44.7128 26.5892C43.2046 27.3809 42.2508 28.5964 42.5824 29.3053C42.9141 30.0141 44.4077 29.9495 45.916 29.1649C47.4242 28.3803 48.378 27.1577 48.045 26.4475C47.7121 25.7373 46.2158 25.799 44.7128 26.5892ZM26.704 46.3548C25.9652 47.9563 25.9081 49.5354 26.5833 49.8821C27.2585 50.2288 28.3993 49.2139 29.1382 47.6138C29.8771 46.0137 29.9341 44.4347 29.2602 44.0866C28.5864 43.7385 27.4429 44.7547 26.704 46.3548Z" fill="url(#paint14_radial)"/>
<path style="mix-blend-mode:multiply" opacity="0.5" d="M27.2399 47.6097C27.7705 46.209 28.551 45.2544 29.1113 45.2487C29.1113 44.645 28.9913 44.1875 28.7249 44.0199C28.1668 43.669 27.2179 44.6961 26.6036 46.3156C25.9893 47.935 25.9431 49.5346 26.5034 49.8855C26.5809 49.9318 26.6657 49.9542 26.7511 49.9509C26.7816 49.1342 26.9483 48.3356 27.2399 47.6097Z" fill="url(#paint15_radial)"/>
<path style="mix-blend-mode:multiply" opacity="0.5" d="M33.5013 35.579C36.1032 31.5726 39.4991 29.3561 41.1113 30.6139C41.0201 30.1038 40.7689 29.647 40.403 29.3261C38.7997 28.024 35.3808 30.2404 32.7648 34.2741C30.1489 38.3078 29.328 42.6333 30.9301 43.9354C30.9386 43.9415 30.9476 43.9468 30.9569 43.9512C30.5197 42.018 31.4671 38.7112 33.5013 35.579Z" fill="url(#paint16_radial)"/>
<path style="mix-blend-mode:multiply" opacity="0.5" d="M45.7605 27.9531C46.4476 27.4915 47.2226 27.267 48.0041 27.3031C48.0636 27.1772 48.0993 27.0364 48.1088 26.8911C48.1183 26.7459 48.1011 26.5998 48.0587 26.4638C47.7619 25.7301 46.4264 25.7917 45.0767 26.6179C43.727 27.444 42.8735 28.7161 43.1702 29.4571C43.2499 29.61 43.3594 29.7355 43.4886 29.8222C43.6179 29.9089 43.7627 29.9539 43.9098 29.9531C44.3426 29.0639 44.9898 28.3645 45.7605 27.9531Z" fill="url(#paint17_radial)"/>
<path style="mix-blend-mode:multiply" opacity="0.5" d="M40.056 74.8216C38.9901 76.1321 35.9049 75.2932 33.1642 72.949C30.4234 70.6047 29.066 67.6413 30.1319 66.3307C31.1978 65.0202 34.2816 65.8577 37.0223 68.2034C39.7631 70.549 41.1205 73.511 40.056 74.8216ZM45.8792 75.5297C44.3074 74.6796 42.7194 74.599 42.3329 75.3516C41.9464 76.1043 42.9079 77.4023 44.4796 78.2524C46.0514 79.1025 47.6394 79.1831 48.0259 78.4319C48.4124 77.6806 47.4509 76.3812 45.8792 75.5297ZM32.6421 60.6002C31.4622 59.2367 30.0044 58.5884 29.3874 59.1532C28.7703 59.7181 29.2219 61.2791 30.4017 62.6439C31.5816 64.0087 33.0394 64.6557 33.6564 64.0908C34.2735 63.526 33.8192 61.9636 32.6421 60.6002Z" fill="url(#paint18_radial)"/>
<path style="mix-blend-mode:multiply" opacity="0.5" d="M33.8231 64.7193C33.9286 64.5983 34.0085 64.4528 34.0572 64.2932C34.1058 64.1336 34.122 63.9639 34.1045 63.7965C33.5363 63.7295 32.9869 63.5314 32.4913 63.2147C31.9957 62.898 31.5649 62.4697 31.2263 61.9572C30.5038 61.1405 30.0384 60.0852 29.8997 58.9492C29.7169 58.9576 29.5413 59.0312 29.3989 59.1592C28.756 59.7858 29.2273 61.553 30.4511 63.0899C31.675 64.6268 33.1802 65.3553 33.8231 64.7193Z" fill="url(#paint19_radial)"/>
<path style="mix-blend-mode:multiply" opacity="0.5" d="M45.163 77.2677C44.6467 77.0531 44.1801 76.7367 43.7918 76.3376C43.4035 75.9385 43.1015 75.4653 42.9044 74.9468C42.7608 74.9663 42.6233 75.0166 42.5014 75.0942C42.3795 75.1718 42.2762 75.2749 42.1988 75.3961C41.803 76.1381 42.7878 77.4215 44.3976 78.2611C46.0075 79.1007 47.6341 79.1804 48.0299 78.4384C48.1115 78.267 48.1325 78.0734 48.0897 77.8888C47.0716 78.0057 46.043 77.7874 45.163 77.2677Z" fill="url(#paint20_radial)"/>
<path style="mix-blend-mode:multiply" opacity="0.5" d="M34.0273 72.2548C31.7977 70.1252 30.5471 67.5168 30.8815 65.9482C30.7187 66.042 30.5737 66.1718 30.4548 66.3301C29.4477 67.7136 30.7303 70.8419 33.32 73.3167C35.9097 75.7915 38.8299 76.6771 39.832 75.2935C39.9694 75.0944 40.065 74.8618 40.1113 74.6136C38.8581 75.3788 36.3172 74.4446 34.0273 72.2548Z" fill="url(#paint21_radial)"/>
<path style="mix-blend-mode:screen" d="M80.6215 77.525C94.2926 62.3959 93.1089 39.0502 77.9778 25.3809C62.8467 11.7117 39.4979 12.8951 25.8269 28.0243C12.1558 43.1534 13.3394 66.4991 28.4705 80.1683C43.6017 93.8376 66.9505 92.6541 80.6215 77.525Z" fill="url(#paint22_radial)"/>
<g style="mix-blend-mode:screen" opacity="0.45">
<g style="mix-blend-mode:screen" opacity="0.45">
<g style="mix-blend-mode:screen" opacity="0.45">
<path d="M41.0369 36.1623C42.6914 37.4554 42.162 40.8785 39.8663 43.8066C37.5706 46.7347 34.3705 48.0596 32.7215 46.7664C31.0725 45.4733 31.5964 42.0516 33.8921 39.1235C36.1877 36.1954 39.3906 34.8692 41.0369 36.1623Z" fill="#E0A326"/>
</g>
</g>
<g style="mix-blend-mode:screen" opacity="0.45">
<g style="mix-blend-mode:screen" opacity="0.45">
<path d="M49.0883 30.2957C49.7253 31.3519 48.7229 33.1236 46.8492 34.2556C44.9754 35.3876 42.9389 35.4468 42.2992 34.3934C41.6594 33.3401 42.6646 31.5656 44.5397 30.4336C46.4148 29.3017 48.4513 29.241 49.0883 30.2957Z" fill="#E0A326"/>
</g>
</g>
</g>
<path d="M103.549 22.4759C100.652 17.6584 87.16 19.9808 69.7328 27.4181C70.7702 28.0832 71.7401 28.8467 72.6291 29.698C83.7879 25.6382 92.0519 24.7572 94.0572 28.0977C97.4721 33.7866 81.4613 49.5242 58.2953 63.2477C35.1294 76.9712 13.5812 83.485 10.1623 77.7961C7.99697 74.1885 13.6502 66.5375 23.9802 57.9288C23.5957 56.8422 23.352 55.7114 23.2547 54.5637C7.07155 66.8951 -2.35233 78.3798 0.673572 83.4219C4.86211 90.3988 31.2912 82.4122 59.6897 65.5839C88.0882 48.7556 107.737 29.4528 103.549 22.4759Z" fill="#E0A326"/>
<g style="mix-blend-mode:multiply" opacity="0.54">
<path d="M74.5012 26.7373C74.4043 26.3866 74.3887 26.0186 74.4556 25.661C72.8067 26.3017 71.1141 26.9881 69.3776 27.7204C70.4175 28.3868 71.3899 29.1519 72.2809 30.0049C83.4668 25.9369 91.7508 25.0542 93.7609 28.4013C97.184 34.1017 81.1345 49.871 57.9125 63.6222C34.6905 77.3733 13.0903 83.9002 9.66304 78.1998C7.4925 74.5849 13.1594 66.9185 23.5144 58.2925C23.129 57.2037 22.8846 56.0706 22.7872 54.9206C13.8548 61.7262 6.98235 68.2695 3.11133 73.6225C7.85471 68.7267 16.0875 60.5029 16.4332 62.0241C16.9212 64.1659 -2.1892 76.9985 10.8036 81.3273C23.7964 85.6562 55.8139 66.125 68.114 58.379C80.4142 50.633 95.1268 37.3239 97.8974 28.4892C100.668 19.6545 75.6363 30.6488 74.5012 26.7373Z" fill="#E0A326"/>
</g>
<g style="mix-blend-mode:screen">
<g style="mix-blend-mode:multiply" opacity="0.54">
<g style="mix-blend-mode:multiply" opacity="0.54">
<path d="M11.2423 82.893C11.212 83.0308 10.677 83.0308 9.898 83.1687C8.90225 83.3751 7.89404 83.516 6.87986 83.5906C5.67889 83.6581 4.49681 83.2691 3.5708 82.5015C3.24131 82.1964 2.97559 81.829 2.78903 81.4206C2.71662 81.2667 2.65802 81.1066 2.61393 80.9423C2.58006 80.7795 2.55748 80.6146 2.54636 80.4487C2.52154 80.0407 2.55262 79.6311 2.63874 79.2315C2.90604 78.1861 3.34143 77.1911 3.9279 76.2854C5.04609 74.3553 6.47588 72.6776 6.69649 72.8389C6.91709 73.0002 5.9092 74.9068 5.1495 76.8892C4.77338 77.7221 4.51669 78.6039 4.38703 79.5085C4.34305 79.8367 4.37465 80.1705 4.47941 80.4846C4.51664 80.7712 4.63803 81.0404 4.82824 81.258C5.40099 81.8263 6.15679 82.1732 6.96121 82.2368C7.92636 82.3746 9.05144 82.3085 9.89249 82.4229C10.7335 82.5373 11.2726 82.7689 11.2423 82.893Z" fill="#E0A326"/>
</g>
</g>
<g style="mix-blend-mode:multiply" opacity="0.54">
<g style="mix-blend-mode:multiply" opacity="0.54">
<path d="M96.1534 36.9361C95.9549 36.7651 98.0658 33.9294 99.7382 30.8551C100.557 29.562 101.159 28.1435 101.52 26.6559C101.597 26.2192 101.606 25.7731 101.544 25.3338C101.523 25.1737 101.491 25.0153 101.448 24.8596C101.42 24.7049 101.379 24.5528 101.327 24.4047C101.205 24.0293 100.997 23.6876 100.72 23.4066C100.264 22.9962 99.7082 22.7132 99.1081 22.5863C98.3122 22.3981 97.501 22.2818 96.6842 22.2389C95.1117 22.156 93.5352 22.2834 91.9964 22.618C91.2937 22.8575 90.5627 23.0044 89.8221 23.055C89.7683 22.9447 90.5115 22.4181 91.7758 21.9025C93.3448 21.2883 95.006 20.9425 96.6898 20.8796C97.6074 20.8387 98.5269 20.8881 99.4349 21.0271C100.334 21.1554 101.182 21.5208 101.893 22.0859C102.409 22.5292 102.814 23.0879 103.074 23.7167C103.173 23.9451 103.253 24.1812 103.313 24.4226C103.363 24.6618 103.396 24.904 103.413 25.1477C103.456 25.7752 103.4 26.4056 103.247 27.0157C102.736 28.6589 101.936 30.1977 100.884 31.5596C98.8669 34.5484 96.352 37.1098 96.1534 36.9361Z" fill="#E0A326"/>
</g>
</g>
</g>
<defs>
<radialGradient id="paint0_radial" cx="0" cy="0" r="1" gradientUnits="userSpaceOnUse" gradientTransform="translate(3506.92 -1743.56) rotate(-51.3402) scale(826.958 806.788)">
<stop offset="0.059" stop-color="#0A1656"/>
<stop offset="0.889" stop-color="#4478AF"/>
</radialGradient>
<radialGradient id="paint1_radial" cx="0" cy="0" r="1" gradientUnits="userSpaceOnUse" gradientTransform="translate(18125 14167.4) rotate(-3.25556) scale(2911.52 2911.14)">
<stop stop-color="#F20074"/>
<stop offset="0.141" stop-color="#ED0376"/>
<stop offset="0.307" stop-color="#DF0B7D"/>
<stop offset="0.486" stop-color="#C71887"/>
<stop offset="0.674" stop-color="#A62A96"/>
<stop offset="0.868" stop-color="#7B42A9"/>
<stop offset="0.898" stop-color="#7446AC"/>
</radialGradient>
<radialGradient id="paint2_radial" cx="0" cy="0" r="1" gradientUnits="userSpaceOnUse" gradientTransform="translate(17929.6 13030.6) rotate(-3.29275) scale(2705.47 2479.57)">
<stop stop-color="#F20074"/>
<stop offset="0.141" stop-color="#ED0376"/>
<stop offset="0.307" stop-color="#DF0B7D"/>
<stop offset="0.486" stop-color="#C71887"/>
<stop offset="0.674" stop-color="#A62A96"/>
<stop offset="0.868" stop-color="#7B42A9"/>
<stop offset="0.898" stop-color="#7446AC"/>
</radialGradient>
<radialGradient id="paint3_radial" cx="0" cy="0" r="1" gradientUnits="userSpaceOnUse" gradientTransform="translate(16410 10364.5) rotate(-3.25469) scale(2083.8 1628.99)">
<stop stop-color="#F20074"/>
<stop offset="0.141" stop-color="#ED0376"/>
<stop offset="0.307" stop-color="#DF0B7D"/>
<stop offset="0.486" stop-color="#C71887"/>
<stop offset="0.674" stop-color="#A62A96"/>
<stop offset="0.868" stop-color="#7B42A9"/>
<stop offset="0.898" stop-color="#7446AC"/>
</radialGradient>
<radialGradient id="paint4_radial" cx="0" cy="0" r="1" gradientUnits="userSpaceOnUse" gradientTransform="translate(7038.64 3317.16) rotate(-3.28921) scale(712.884 475.174)">
<stop stop-color="#F20074"/>
<stop offset="0.141" stop-color="#ED0376"/>
<stop offset="0.307" stop-color="#DF0B7D"/>
<stop offset="0.486" stop-color="#C71887"/>
<stop offset="0.674" stop-color="#A62A96"/>
<stop offset="0.868" stop-color="#7B42A9"/>
<stop offset="0.898" stop-color="#7446AC"/>
</radialGradient>
<radialGradient id="paint5_radial" cx="0" cy="0" r="1" gradientUnits="userSpaceOnUse" gradientTransform="translate(2249.55 1182.2) rotate(-3.19165) scale(79.8841 49.9351)">
<stop stop-color="#F20074"/>
<stop offset="0.141" stop-color="#ED0376"/>
<stop offset="0.307" stop-color="#DF0B7D"/>
<stop offset="0.486" stop-color="#C71887"/>
<stop offset="0.674" stop-color="#A62A96"/>
<stop offset="0.868" stop-color="#7B42A9"/>
<stop offset="0.898" stop-color="#7446AC"/>
</radialGradient>
<radialGradient id="paint6_radial" cx="0" cy="0" r="1" gradientUnits="userSpaceOnUse" gradientTransform="translate(5038.71 2331.84) rotate(-3.52917) scale(351.982 227.601)">
<stop stop-color="#F20074"/>
<stop offset="0.141" stop-color="#ED0376"/>
<stop offset="0.307" stop-color="#DF0B7D"/>
<stop offset="0.486" stop-color="#C71887"/>
<stop offset="0.674" stop-color="#A62A96"/>
<stop offset="0.868" stop-color="#7B42A9"/>
<stop offset="0.898" stop-color="#7446AC"/>
</radialGradient>
<radialGradient id="paint7_radial" cx="0" cy="0" r="1" gradientUnits="userSpaceOnUse" gradientTransform="translate(4198.17 4145.21) rotate(0.796319) scale(188.934 218.325)">
<stop stop-color="#F20074"/>
<stop offset="0.141" stop-color="#ED0376"/>
<stop offset="0.307" stop-color="#DF0B7D"/>
<stop offset="0.486" stop-color="#C71887"/>
<stop offset="0.674" stop-color="#A62A96"/>
<stop offset="0.868" stop-color="#7B42A9"/>
<stop offset="0.898" stop-color="#7446AC"/>
</radialGradient>
<radialGradient id="paint8_radial" cx="0" cy="0" r="1" gradientUnits="userSpaceOnUse" gradientTransform="translate(3760.41 1759.24) rotate(-3.43059) scale(184.302 99.2065)">
<stop stop-color="#F20074"/>
<stop offset="0.141" stop-color="#ED0376"/>
<stop offset="0.307" stop-color="#DF0B7D"/>
<stop offset="0.486" stop-color="#C71887"/>
<stop offset="0.674" stop-color="#A62A96"/>
<stop offset="0.868" stop-color="#7B42A9"/>
<stop offset="0.898" stop-color="#7446AC"/>
</radialGradient>
<radialGradient id="paint9_radial" cx="0" cy="0" r="1" gradientUnits="userSpaceOnUse" gradientTransform="translate(20155.8 6484.25) rotate(-72.4086) scale(302.778 969.356)">
<stop stop-color="#F20074"/>
<stop offset="0.141" stop-color="#ED0376"/>
<stop offset="0.307" stop-color="#DF0B7D"/>
<stop offset="0.486" stop-color="#C71887"/>
<stop offset="0.674" stop-color="#A62A96"/>
<stop offset="0.868" stop-color="#7B42A9"/>
<stop offset="0.898" stop-color="#7446AC"/>
</radialGradient>
<radialGradient id="paint10_radial" cx="0" cy="0" r="1" gradientUnits="userSpaceOnUse" gradientTransform="translate(1224.41 2217.97) rotate(-2.96509) scale(56.8263 127.916)">
<stop stop-color="#F20074"/>
<stop offset="0.141" stop-color="#ED0376"/>
<stop offset="0.307" stop-color="#DF0B7D"/>
<stop offset="0.486" stop-color="#C71887"/>
<stop offset="0.674" stop-color="#A62A96"/>
<stop offset="0.868" stop-color="#7B42A9"/>
<stop offset="0.898" stop-color="#7446AC"/>
</radialGradient>
<radialGradient id="paint11_radial" cx="0" cy="0" r="1" gradientUnits="userSpaceOnUse" gradientTransform="translate(1161.39 1544.9) rotate(-2.71151) scale(39.2933 58.9999)">
<stop stop-color="#F20074"/>
<stop offset="0.141" stop-color="#ED0376"/>
<stop offset="0.307" stop-color="#DF0B7D"/>
<stop offset="0.486" stop-color="#C71887"/>
<stop offset="0.674" stop-color="#A62A96"/>
<stop offset="0.868" stop-color="#7B42A9"/>
<stop offset="0.898" stop-color="#7446AC"/>
</radialGradient>
<radialGradient id="paint12_radial" cx="0" cy="0" r="1" gradientUnits="userSpaceOnUse" gradientTransform="translate(1191.13 1376.31) rotate(-4.00013) scale(33.2945 41.5508)">
<stop stop-color="#F20074"/>
<stop offset="0.141" stop-color="#ED0376"/>
<stop offset="0.307" stop-color="#DF0B7D"/>
<stop offset="0.486" stop-color="#C71887"/>
<stop offset="0.674" stop-color="#A62A96"/>
<stop offset="0.868" stop-color="#7B42A9"/>
<stop offset="0.898" stop-color="#7446AC"/>
</radialGradient>
<radialGradient id="paint13_radial" cx="0" cy="0" r="1" gradientUnits="userSpaceOnUse" gradientTransform="translate(2574.9 3841.35) rotate(-2.99329) scale(217.877 435.926)">
<stop stop-color="#F20074"/>
<stop offset="0.141" stop-color="#ED0376"/>
<stop offset="0.307" stop-color="#DF0B7D"/>
<stop offset="0.486" stop-color="#C71887"/>
<stop offset="0.674" stop-color="#A62A96"/>
<stop offset="0.868" stop-color="#7B42A9"/>
<stop offset="0.898" stop-color="#7446AC"/>
</radialGradient>
<radialGradient id="paint14_radial" cx="0" cy="0" r="1" gradientUnits="userSpaceOnUse" gradientTransform="translate(11813.6 4680.82) rotate(-55.5593) scale(592.547 599.368)">
<stop stop-color="#F20074"/>
<stop offset="0.141" stop-color="#ED0376"/>
<stop offset="0.307" stop-color="#DF0B7D"/>
<stop offset="0.486" stop-color="#C71887"/>
<stop offset="0.674" stop-color="#A62A96"/>
<stop offset="0.868" stop-color="#7B42A9"/>
<stop offset="0.898" stop-color="#7446AC"/>
</radialGradient>
<radialGradient id="paint15_radial" cx="0" cy="0" r="1" gradientUnits="userSpaceOnUse" gradientTransform="translate(753.428 1524.45) rotate(-4.21526) scale(28.9074 57.6901)">
<stop stop-color="#F20074"/>
<stop offset="0.141" stop-color="#ED0376"/>
<stop offset="0.307" stop-color="#DF0B7D"/>
<stop offset="0.486" stop-color="#C71887"/>
<stop offset="0.674" stop-color="#A62A96"/>
<stop offset="0.868" stop-color="#7B42A9"/>
<stop offset="0.898" stop-color="#7446AC"/>
</radialGradient>
<radialGradient id="paint16_radial" cx="0" cy="0" r="1" gradientUnits="userSpaceOnUse" gradientTransform="translate(3079.96 3319.87) rotate(-3.65726) scale(265.737 362.023)">
<stop stop-color="#F20074"/>
<stop offset="0.141" stop-color="#ED0376"/>
<stop offset="0.307" stop-color="#DF0B7D"/>
<stop offset="0.486" stop-color="#C71887"/>
<stop offset="0.674" stop-color="#A62A96"/>
<stop offset="0.868" stop-color="#7B42A9"/>
<stop offset="0.898" stop-color="#7446AC"/>
</radialGradient>
<radialGradient id="paint17_radial" cx="0" cy="0" r="1" gradientUnits="userSpaceOnUse" gradientTransform="translate(1352.9 926.789) rotate(-4.03821) scale(35.227 28.1333)">
<stop stop-color="#F20074"/>
<stop offset="0.141" stop-color="#ED0376"/>
<stop offset="0.307" stop-color="#DF0B7D"/>
<stop offset="0.486" stop-color="#C71887"/>
<stop offset="0.674" stop-color="#A62A96"/>
<stop offset="0.868" stop-color="#7B42A9"/>
<stop offset="0.898" stop-color="#7446AC"/>
</radialGradient>
<radialGradient id="paint18_radial" cx="0" cy="0" r="1" gradientUnits="userSpaceOnUse" gradientTransform="translate(2134.61 2309.13) rotate(40.572) scale(443.722 479.222)">
<stop stop-color="#F20074"/>
<stop offset="0.141" stop-color="#ED0376"/>
<stop offset="0.307" stop-color="#DF0B7D"/>
<stop offset="0.486" stop-color="#C71887"/>
<stop offset="0.674" stop-color="#A62A96"/>
<stop offset="0.868" stop-color="#7B42A9"/>
<stop offset="0.898" stop-color="#7446AC"/>
</radialGradient>
<radialGradient id="paint19_radial" cx="0" cy="0" r="1" gradientUnits="userSpaceOnUse" gradientTransform="translate(1287.6 1584.26) rotate(-3.63951) scale(47.1408 56.5248)">
<stop stop-color="#F20074"/>
<stop offset="0.141" stop-color="#ED0376"/>
<stop offset="0.307" stop-color="#DF0B7D"/>
<stop offset="0.486" stop-color="#C71887"/>
<stop offset="0.674" stop-color="#A62A96"/>
<stop offset="0.868" stop-color="#7B42A9"/>
<stop offset="0.898" stop-color="#7446AC"/>
</radialGradient>
<radialGradient id="paint20_radial" cx="0" cy="0" r="1" gradientUnits="userSpaceOnUse" gradientTransform="translate(1619.51 1115.29) rotate(-3.23385) scale(47.5846 31.7252)">
<stop stop-color="#F20074"/>
<stop offset="0.141" stop-color="#ED0376"/>
<stop offset="0.307" stop-color="#DF0B7D"/>
<stop offset="0.486" stop-color="#C71887"/>
<stop offset="0.674" stop-color="#A62A96"/>
<stop offset="0.868" stop-color="#7B42A9"/>
<stop offset="0.898" stop-color="#7446AC"/>
</radialGradient>
<radialGradient id="paint21_radial" cx="0" cy="0" r="1" gradientUnits="userSpaceOnUse" gradientTransform="translate(2748.13 2537.82) rotate(-3.74543) scale(174.674 174.473)">
<stop stop-color="#F20074"/>
<stop offset="0.141" stop-color="#ED0376"/>
<stop offset="0.307" stop-color="#DF0B7D"/>
<stop offset="0.486" stop-color="#C71887"/>
<stop offset="0.674" stop-color="#A62A96"/>
<stop offset="0.868" stop-color="#7B42A9"/>
<stop offset="0.898" stop-color="#7446AC"/>
</radialGradient>
<radialGradient id="paint22_radial" cx="0" cy="0" r="1" gradientUnits="userSpaceOnUse" gradientTransform="translate(22881.3 18363.7) rotate(-3.22573) scale(1994.86 1994.6)">
<stop offset="0.052" stop-color="#E0A326"/>
<stop offset="0.414" stop-color="#E0A227" stop-opacity="0.992"/>
<stop offset="0.545" stop-color="#DF9E2B" stop-opacity="0.961"/>
<stop offset="0.638" stop-color="#DE9833" stop-opacity="0.908"/>
<stop offset="0.714" stop-color="#DD8F3E" stop-opacity="0.833"/>
<stop offset="0.778" stop-color="#DB844C" stop-opacity="0.735"/>
<stop offset="0.835" stop-color="#D8755D" stop-opacity="0.613"/>
<stop offset="0.887" stop-color="#D56471" stop-opacity="0.469"/>
<stop offset="0.934" stop-color="#D25089" stop-opacity="0.3"/>
<stop offset="0.977" stop-color="#CE3BA3" stop-opacity="0.116"/>
<stop offset="1" stop-color="#CC2DB4" stop-opacity="0"/>
</radialGradient>
</defs>
</svg>
