<svg width="199" height="190" viewBox="0 0 199 190" fill="none" xmlns="http://www.w3.org/2000/svg">
<path style="mix-blend-mode:screen" opacity="0.45" d="M99.1819 189.541C44.4055 189.541 0.000488281 147.111 0.000488281 94.7705C0.000488281 42.4302 44.4055 0 99.1819 0C153.958 0 198.363 42.4302 198.363 94.7705C198.363 147.111 153.958 189.541 99.1819 189.541Z" fill="url(#paint0_radial)"/>
<path d="M27.6229 100.064C28.9658 113.559 34.4641 126.371 43.4223 136.879C52.3805 147.386 64.3961 155.116 77.9492 159.092C91.5023 163.067 105.984 163.11 119.562 159.214C133.141 155.317 145.205 147.658 154.231 137.203C163.256 126.748 168.836 113.969 170.266 100.481C171.695 86.9934 168.909 73.4032 162.26 61.4297C155.612 49.4562 145.399 39.6375 132.914 33.2154C120.429 26.7934 106.233 24.0567 92.1215 25.3514C82.7488 26.1876 73.641 28.7861 65.3213 32.9976C57.0015 37.2091 49.6336 42.9507 43.6406 49.8927C37.6476 56.8347 33.1474 64.8405 30.3987 73.4502C27.6499 82.06 26.7066 91.1042 27.6229 100.064Z" fill="url(#paint1_linear)"/>
<path d="M27.5997 86.9799C27.7136 85.9124 27.8475 84.8449 28.006 83.8031C28.1623 82.8167 28.3186 81.8303 28.4995 80.8418C28.745 79.6184 29.0375 78.4186 29.33 77.2123C29.5309 76.4394 29.7564 75.6452 29.9819 74.8937C30.1828 74.2532 30.386 73.6127 30.6092 72.9722C30.9687 71.8342 31.3504 70.7411 31.7992 69.6458C32.0224 69.0673 32.2457 68.4866 32.4958 67.9379C32.7458 67.3892 32.9668 66.7999 33.237 66.2427L33.9782 64.6329C34.4258 65.0582 34.8456 65.5095 35.2351 65.9843C37.0214 67.9353 38.9996 69.7177 41.1424 71.3069C43.5584 73.1232 46.1529 74.7112 48.8894 76.0487C49.4323 76.3474 49.9945 76.6127 50.5727 76.8429C51.2693 77.1867 52.0105 77.5069 52.7517 77.7866C53.4036 78.0663 54.0756 78.3225 54.7499 78.5381C54.9061 78.6022 55.0647 78.6662 55.2433 78.7303C55.9398 78.9673 56.6364 79.2021 57.3552 79.4178C57.8018 79.5459 58.2483 79.6953 58.6948 79.8042C59.8847 80.1479 61.0993 80.4447 62.2892 80.6838C65.1961 81.3194 68.1576 81.6996 71.1368 81.8196C86.6754 82.5285 100.037 76.1341 103.788 64.998C104.457 63.0008 104.798 60.9164 104.799 58.8193C104.802 58.2168 104.772 57.6146 104.708 57.0152C104.663 56.4786 104.596 55.9427 104.507 55.4075C104.462 55.2133 104.44 54.9998 104.393 54.8055C104.304 54.355 104.214 53.9045 104.08 53.4327C103.942 52.8284 103.761 52.2335 103.54 51.6521C103.354 51.0724 103.136 50.5023 102.888 49.9441C102.62 49.342 102.328 48.7421 102.035 48.1421C101.765 47.6041 101.475 47.0896 101.16 46.575C101.093 46.4469 101.004 46.3167 100.912 46.1673C100.665 45.7396 100.395 45.3242 100.104 44.9225L99.7002 44.344C99.4077 43.917 99.0706 43.49 98.7357 43.063C98.3763 42.5911 97.9945 42.1172 97.5904 41.6667C97.0501 41.0667 96.4897 40.4455 95.9048 39.8647C94.8713 38.7988 93.7692 37.7956 92.6051 36.8608C91.8416 36.2395 91.0423 35.6161 90.2006 35.0161C89.6633 34.629 89.1022 34.2426 88.5173 33.8568C88.0909 33.5771 87.6645 33.321 87.238 33.0413C87.1155 32.9627 86.988 32.8914 86.8563 32.8278C83.8999 31.0529 80.7618 29.5714 77.4907 28.4062C77.4014 28.3635 77.3121 28.3421 77.2228 28.2994C78.9955 27.7635 80.815 27.2917 82.6792 26.8626C84.5434 26.4334 86.383 26.1111 88.294 25.8314C88.6512 25.7887 88.9884 25.7246 89.3478 25.6819C90.2007 25.5752 91.0557 25.4876 91.9086 25.4022C91.9756 25.4022 92.0648 25.3809 92.1318 25.3809C93.3664 25.2741 94.6233 25.1888 95.8579 25.1461C98.5595 25.0226 101.266 25.0511 103.964 25.2314C104.46 25.2528 104.976 25.2955 105.469 25.3382C106.233 25.4022 106.974 25.4876 107.737 25.5752L109.713 25.8314C110.41 25.9403 111.106 26.0449 111.803 26.1751C113.193 26.4114 114.562 26.6904 115.911 27.012C116.607 27.1615 117.282 27.3344 117.956 27.5052C119.146 27.8276 120.313 28.1713 121.481 28.5364C122.401 28.8353 123.345 29.1577 124.243 29.4801C124.783 29.6723 125.321 29.8665 125.837 30.08C126.489 30.3384 127.118 30.5946 127.768 30.8529C128.418 31.1112 129.027 31.3888 129.632 31.6685C130.058 31.8606 130.463 32.0549 130.867 32.247C131.09 32.3559 131.293 32.4413 131.496 32.5481C131.339 32.6208 131.19 32.7073 131.05 32.8064C123.669 36.5196 118.053 42.7915 115.353 50.3369C114.981 51.4335 114.682 52.5516 114.46 53.6846C113.752 57.3241 113.775 61.0591 114.527 64.6905C116.502 74.9684 123.801 85.0542 134.713 92.7786C137.359 94.6461 140.135 96.3382 143.023 97.8428C143.965 98.336 144.932 98.8078 145.898 99.2369C146.061 99.3335 146.234 99.413 146.414 99.474C147.356 99.9251 148.324 100.352 149.317 100.755C150.484 101.227 151.585 101.656 152.73 102.036C153.875 102.416 155.021 102.83 156.188 103.195C159.495 104.202 162.873 104.983 166.295 105.533C167.349 105.725 168.405 105.877 169.461 106.005C169.28 106.885 169.101 107.764 168.898 108.622C168.697 109.438 168.494 110.254 168.271 111.069C168.249 111.176 168.202 111.283 168.182 111.392C168.001 112.032 167.8 112.673 167.597 113.313C167.493 113.699 167.366 114.079 167.215 114.451C167.012 115.051 166.811 115.653 166.585 116.253C166.581 116.298 166.565 116.342 166.541 116.381C166.248 117.175 165.936 117.969 165.621 118.742C164.951 120.373 164.205 121.983 163.388 123.548C162.984 124.342 162.558 125.115 162.131 125.897C161.705 126.678 161.254 127.419 160.792 128.17C159.872 129.695 158.883 131.16 157.852 132.59C155.758 135.447 153.444 138.151 150.931 140.679C150.413 141.217 149.875 141.732 149.334 142.247C149.247 142.362 149.142 142.463 149.022 142.548C148.7 142.225 148.354 141.924 147.988 141.647C147.501 141.274 146.991 140.929 146.461 140.615C145.73 140.212 144.954 139.889 144.148 139.65C141.426 138.708 138.425 138.834 135.8 140C133.174 141.166 131.138 143.277 130.134 145.874C129.413 148.047 129.549 150.398 130.516 152.482C130.822 153.189 131.214 153.859 131.684 154.478C127.711 156.421 123.562 158.015 119.289 159.241C116.949 159.908 114.573 160.452 112.171 160.872C110.082 161.235 107.949 161.536 105.793 161.726C104.737 161.812 103.683 161.897 102.649 161.94C101.392 162.004 100.133 162.047 98.8987 162.047C98.0682 162.047 97.2377 162.025 96.4072 162.004C95.4405 161.961 94.4738 161.918 93.5049 161.854C92.652 161.79 91.7768 161.705 90.9441 161.617C90.1114 161.53 89.2607 161.425 88.4302 161.318C88.3953 161.303 88.3571 161.296 88.3186 161.297C87.4636 161.167 86.5884 161.017 85.7355 160.87C84.5902 160.676 83.4673 160.443 82.322 160.183C81.9625 160.097 81.5807 160.012 81.2213 159.903L80.6609 159.775C80.3238 159.69 80.009 159.604 79.6942 159.517C79.1785 159.388 78.6606 159.239 78.1672 159.09C78.1449 158.575 78.1225 158.061 78.0779 157.525C78.0555 157.138 78.0108 156.73 77.9662 156.323C77.9215 155.915 77.897 155.443 77.8301 155.014C77.7631 154.414 77.6737 153.833 77.5621 153.233C77.4505 152.633 77.3589 151.989 77.225 151.365C76.6332 148.644 75.8065 145.975 74.7536 143.385C74.575 142.889 74.3718 142.396 74.1485 141.924C73.9677 141.516 73.7891 141.109 73.586 140.701C73.3828 140.293 73.2265 139.928 73.0256 139.565C72.8023 139.093 72.5523 138.619 72.2844 138.147C71.791 137.225 71.2507 136.303 70.668 135.402C70.3999 134.937 70.107 134.486 69.7906 134.05C68.3022 131.801 66.6276 129.67 64.783 127.677C61.7884 124.378 58.3796 121.444 54.6338 118.943C54.1736 118.603 53.6935 118.288 53.196 117.999C52.8377 117.744 52.4651 117.508 52.0797 117.293C47.7392 114.672 43.0687 112.588 38.1798 111.09C37.865 111.005 37.5725 110.898 37.26 110.832C34.611 110.073 31.9097 109.492 29.1759 109.094C28.9951 108.366 28.8388 107.615 28.6803 106.885C28.5463 106.306 28.4347 105.704 28.3208 105.125C28.2985 104.955 28.2539 104.782 28.2316 104.611C27.9614 103.129 27.7605 101.607 27.6019 100.082C27.1626 95.7251 27.1618 91.3374 27.5997 86.9799ZM127.172 100.539C119.514 98.2015 111.879 100.561 110.104 105.841C108.541 110.582 112.216 116.076 118.57 118.821C119.287 119.133 120.022 119.405 120.771 119.637C121.108 119.744 121.423 119.831 121.76 119.917C129.081 121.761 136.131 119.379 137.834 114.338C138.187 113.3 138.286 112.199 138.125 111.118C138.102 110.883 138.058 110.668 138.013 110.431C137.879 109.795 137.667 109.176 137.384 108.586C137.272 108.351 137.16 108.093 137.024 107.856C137.002 107.835 137.002 107.792 136.957 107.749C136.801 107.472 136.642 107.213 136.464 106.955C136.078 106.372 135.633 105.827 135.138 105.326C134.914 105.068 134.644 104.809 134.376 104.553C134.108 104.297 133.836 104.081 133.544 103.844C133.251 103.607 132.961 103.394 132.651 103.18C132.628 103.157 132.584 103.135 132.561 103.114C132.246 102.901 131.909 102.687 131.572 102.493C130.2 101.663 128.721 101.006 127.172 100.539ZM62.9813 115.461C63.5435 115.739 64.1202 115.99 64.7093 116.212C65.4728 116.514 66.2587 116.793 67.0669 117.049C78.4976 120.546 89.8836 117.007 92.5314 109.131C92.9965 107.717 93.1649 106.23 93.027 104.754L92.9601 104.175C92.914 103.828 92.8461 103.484 92.7569 103.144C92.6885 102.824 92.5982 102.509 92.4867 102.2C92.4858 102.111 92.4628 102.023 92.4198 101.944C92.3751 101.793 92.3305 101.643 92.2635 101.47C92.1667 101.193 92.0542 100.922 91.9264 100.657C91.8948 100.575 91.8575 100.496 91.8148 100.42C91.6339 100.033 91.4553 99.6682 91.2298 99.2818C91.1153 99.0678 90.9878 98.8604 90.8481 98.6605C90.4586 98.0249 90.0236 97.4157 89.5465 96.8372C89.254 96.4721 88.9392 96.0857 88.6021 95.742C87.428 94.5027 86.1182 93.3875 84.6951 92.4156C82.2409 90.7246 79.5191 89.4207 76.6334 88.5534C65.2027 85.0563 53.8189 88.5961 51.1688 96.4529C50.5674 98.2861 50.4668 100.236 50.8764 102.117C51.9212 107.299 56.4332 112.384 62.9813 115.461Z" fill="#09B1D8"/>
<path d="M63.0021 115.461C64.3194 116.08 65.6827 116.605 67.081 117.032C78.5005 120.531 89.8977 116.987 92.5321 109.12C94.5571 103.084 90.8309 96.267 83.8385 91.8262C92.8067 96.0428 97.9618 103.955 95.6533 110.828C93.0122 118.697 81.6149 122.239 70.202 118.74C67.6555 117.969 65.2327 116.866 63.0021 115.461Z" fill="#2478DD"/>
<path d="M103.793 64.9746C107.588 53.6591 100.305 40.8491 86.8588 32.8022C102.277 40.6505 110.995 54.5429 106.914 66.7018C102.096 81.0575 81.302 87.5223 60.4767 81.1386C56.257 79.8463 52.2234 78.0531 48.4701 75.8012C51.3129 77.2587 54.2876 78.4677 57.3579 79.4136C78.1809 85.7951 98.9771 79.3324 103.793 64.9746Z" fill="#2478DD"/>
<path d="M118.498 118.783C119.236 119.111 119.993 119.396 120.767 119.637C128.42 121.985 136.057 119.609 137.828 114.333C139.129 110.454 136.883 106.092 132.561 103.12C138.855 105.896 142.534 111.331 140.949 116.06C139.178 121.334 131.541 123.708 123.888 121.364C121.961 120.778 120.143 119.907 118.498 118.783Z" fill="#0652C1"/>
<path d="M51.7117 117.092C60.0312 121.236 67.1071 127.342 72.2699 134.831C77.4327 142.321 80.5115 150.947 81.2148 159.892C80.1923 159.642 79.1743 159.375 78.1674 159.085C77.6806 150.551 75.0147 142.261 70.4027 134.941C65.7907 127.62 59.3733 121.492 51.7117 117.092Z" fill="#2478DD"/>
<path d="M149.332 142.229C149.227 142.327 149.136 142.443 149.031 142.532C148.7 142.212 148.351 141.909 147.986 141.625C148.448 141.799 148.897 142.001 149.332 142.229Z" fill="#0652C1"/>
<path d="M159.301 104.901C153.604 103.165 148.144 100.787 143.034 97.8174C151.236 102.076 160.19 104.849 169.445 105.994C169.365 106.406 169.244 106.806 169.157 107.216C165.821 106.659 162.528 105.885 159.301 104.901Z" fill="#0652C1"/>
<g style="mix-blend-mode:lighten" opacity="0.2">
<path d="M43.8082 97.2277C29.4211 83.8851 31.5418 59.4767 48.5448 42.71C65.5478 25.9433 90.9945 23.1675 105.382 36.51C119.769 49.8526 117.648 74.2611 100.645 91.0278C83.642 107.795 58.1953 110.57 43.8082 97.2277Z" fill="white"/>
</g>
<g style="mix-blend-mode:lighten" opacity="0.2">
<path d="M45.888 80.8238C37.6998 73.2415 39.887 58.3792 50.7732 47.6281C61.6595 36.877 77.1225 34.3083 85.3107 41.8906C93.4989 49.4729 91.3116 64.3351 80.4254 75.0862C69.5391 85.8373 54.0762 88.4062 45.888 80.8238Z" fill="white"/>
</g>
<g style="mix-blend-mode:color-burn" opacity="0.5">
<path d="M67.0488 154.858C75.4751 158.911 84.6553 161.332 94.0626 161.983C103.47 162.634 112.919 161.502 121.868 158.652C130.816 155.802 139.088 151.29 146.209 145.375C153.329 139.46 159.158 132.258 163.361 124.184C167.564 116.109 170.058 107.32 170.699 98.3209C171.341 89.322 170.118 80.2905 167.1 71.7448C164.083 63.1991 159.33 55.3075 153.115 48.5228C146.9 41.7381 139.346 36.1939 130.884 32.2085C142.123 67.1777 147.733 129.703 67.0488 154.858Z" fill="#2478DD"/>
</g>
<path d="M99.8931 161.848C112.196 160.727 124.02 156.726 134.322 150.199C144.624 143.671 153.087 134.818 158.963 124.422C164.839 114.025 167.947 102.404 168.013 90.5864C168.079 78.7685 165.101 67.1169 159.342 56.6606C165.96 66.5437 169.81 77.8882 170.522 89.6046C171.234 101.321 168.783 113.015 163.406 123.565C158.029 134.114 149.905 143.165 139.816 149.846C129.726 156.527 118.01 160.615 105.792 161.718C103.065 161.954 100.326 162.041 97.5891 161.98C98.3571 161.933 99.1207 161.918 99.8931 161.848Z" fill="url(#paint2_linear)"/>
<path d="M57.8895 45.74C52.2746 51.6027 51.2342 59.4253 55.5631 63.2107C59.8921 66.996 67.956 65.3179 73.5731 59.4552C79.1902 53.5925 80.2284 45.772 75.8994 41.9845C71.5705 38.197 63.5066 39.8815 57.8895 45.74Z" fill="white"/>
<path d="M57.006 74.3601C54.894 76.8047 54.6462 79.9431 56.4523 81.3671C58.2585 82.7912 61.4354 81.9628 63.5475 79.5182C65.6595 77.0737 65.9073 73.9352 64.0989 72.5112C62.2905 71.0872 59.1158 71.907 57.006 74.3601Z" fill="white"/>
<defs>
<radialGradient id="paint0_radial" cx="0" cy="0" r="1" gradientUnits="userSpaceOnUse" gradientTransform="translate(-61130.8 36667.3) rotate(180) scale(8761.29 8371.65)">
<stop stop-color="white"/>
<stop offset="1"/>
</radialGradient>
<linearGradient id="paint1_linear" x1="144.761" y1="102.87" x2="5.46783" y2="70.5021" gradientUnits="userSpaceOnUse">
<stop stop-color="#09B1D8"/>
<stop offset="0.177" stop-color="#28C7E3"/>
<stop offset="0.409" stop-color="#4ADFEF"/>
<stop offset="0.629" stop-color="#62F1F8"/>
<stop offset="0.832" stop-color="#71FBFD"/>
<stop offset="1" stop-color="#76FFFF"/>
</linearGradient>
<linearGradient id="paint2_linear" x1="-20022.2" y1="21534.9" x2="-22635.7" y2="21534.9" gradientUnits="userSpaceOnUse">
<stop stop-color="#09B1D8"/>
<stop offset="0.177" stop-color="#28C7E3"/>
<stop offset="0.409" stop-color="#4ADFEF"/>
<stop offset="0.629" stop-color="#62F1F8"/>
<stop offset="0.832" stop-color="#71FBFD"/>
<stop offset="1" stop-color="#76FFFF"/>
</linearGradient>
</defs>
</svg>
