<svg width="279" height="267" viewBox="0 0 279 267" fill="none" xmlns="http://www.w3.org/2000/svg">
<path style="mix-blend-mode:screen" opacity="0.35" d="M139.371 266.341C62.3988 266.341 0.000915527 206.719 0.000915527 133.171C0.000915527 59.6225 62.3988 0 139.371 0C216.342 0 278.74 59.6225 278.74 133.171C278.74 206.719 216.342 266.341 139.371 266.341Z" fill="url(#paint0_radial)"/>
<path d="M42.4344 132.447C42.4344 133.799 42.4567 135.129 42.5237 136.459C43.2303 152.261 48.1271 167.631 56.7538 181.125C65.3805 194.619 77.4538 205.794 91.8387 213.599C93.1626 214.329 94.5334 215.036 95.9243 215.702C110.828 222.915 127.415 226.36 144.105 225.71C160.795 225.06 177.033 220.337 191.275 211.989C193.206 210.83 195.115 209.641 196.956 208.36C206.292 201.972 214.379 194.062 220.845 184.992C221.923 183.512 222.932 181.988 223.921 180.442C230.697 169.608 235.111 157.575 236.898 145.067C238.685 132.559 237.807 119.835 234.318 107.66C233.981 106.501 233.622 105.312 233.218 104.184C228.504 90.0527 220.341 77.197 209.402 66.6805C198.464 56.1639 185.064 48.2886 170.312 43.7057C155.56 39.1229 139.879 37.9642 124.566 40.3254C109.253 42.6867 94.7479 48.5 82.2499 57.2848C80.1847 58.7216 78.162 60.246 76.2219 61.8558C66.9212 69.5495 59.2128 78.8439 53.4967 89.2564C51.6331 92.6585 49.9978 96.1705 48.6007 99.7713C45.9844 106.423 44.1862 113.342 43.2426 120.391C42.7013 124.389 42.4314 128.416 42.4344 132.447Z" fill="#C9f"/>
<g style="mix-blend-mode:multiply" opacity="0.5">
<path d="M117.664 194.102C134.468 194.121 150.968 189.814 165.431 181.633C179.894 173.451 191.787 161.697 199.862 147.604C207.936 133.51 211.894 117.598 211.32 101.538C210.745 85.4774 205.66 69.861 196.598 56.3281C209.05 64.7878 219.253 75.9237 226.386 88.8402C233.518 101.757 237.382 116.094 237.667 130.698C237.951 145.303 234.648 159.767 228.023 172.929C221.398 186.09 211.636 197.582 199.522 206.479C187.408 215.376 173.28 221.431 158.274 224.156C143.267 226.881 127.802 226.202 113.12 222.171C98.4388 218.141 84.9512 210.872 73.7418 200.949C62.5324 191.027 53.9141 178.727 48.5798 165.04C57.3504 174.21 68.0238 181.531 79.9188 186.534C91.8138 191.538 104.669 194.116 117.664 194.102Z" fill="#D61BDB"/>
</g>
<path d="M135.437 221.777C159.563 221.78 182.936 213.744 201.536 199.05C220.137 184.356 232.802 163.924 237.354 141.267C235.72 157.613 229.609 173.259 219.637 186.627C209.664 199.996 196.183 210.614 180.553 217.412C164.922 224.21 147.693 226.948 130.603 225.349C113.513 223.75 97.1658 217.872 83.2088 208.306C99.0581 217.153 117.086 221.803 135.437 221.777Z" fill="#45EDE8"/>
<g style="mix-blend-mode:lighten" opacity="0.2">
<path d="M66.8014 135.064C50.2635 116.479 57.6057 84.5277 83.2007 63.6987C108.796 42.8698 142.951 41.0505 159.489 59.6353C176.027 78.2202 168.685 110.171 143.09 131C117.495 151.829 83.3393 153.649 66.8014 135.064Z" fill="white"/>
</g>
<path d="M116.898 55.903C111.484 60.3181 109.939 67.084 113.449 71.0124C116.958 74.9408 124.192 74.5458 129.606 70.1306C135.02 65.7154 136.565 58.9496 133.055 55.0212C129.545 51.0928 122.312 51.4878 116.898 55.903Z" fill="white"/>
<path d="M89.8758 67.6308C86.3037 70.5387 85.2946 74.9923 87.6053 77.5799C89.916 80.1675 94.6803 79.9049 98.2435 76.9992C101.807 74.0935 102.825 69.6377 100.514 67.0501C98.2033 64.4625 93.4412 64.7229 89.8758 67.6308Z" fill="white"/>
<g style="mix-blend-mode:lighten" opacity="0.25">
<path d="M48.6097 99.7709C67.6311 102.709 87.2576 103.783 106.076 109.188C130.383 115.951 153.389 126.421 174.207 140.195C192.379 152.4 208.167 167.564 220.849 184.996C221.928 183.516 222.937 181.992 223.926 180.446C223.095 179.052 222.242 177.658 221.41 176.285C211.81 160.535 202.009 144.484 187.698 132.447C171.124 118.499 149.858 111.012 129.109 103.823C108.585 96.6986 78.3809 85.9062 53.499 89.2538C51.6376 92.6568 50.0045 96.1695 48.6097 99.7709Z" fill="#76FFFF"/>
</g>
<g style="mix-blend-mode:lighten" opacity="0.25">
<path d="M42.4364 132.447C42.4364 133.798 42.4587 135.129 42.5257 136.459C59.9396 133.284 78.1863 135.472 92.2224 145.471C98.7189 150.518 104.555 156.296 109.603 162.681C111.814 164.872 113.419 167.557 114.273 170.491C115.419 176.413 110.456 181.593 106.482 186.262C99.781 194.369 94.8069 203.653 91.8407 213.59C93.1646 214.32 94.5354 215.027 95.9263 215.693C97.3687 208.987 99.9527 202.552 103.575 196.646C111.367 184.287 126.347 175.062 141.187 177.594C149.137 178.945 156.076 183.358 162.747 187.677C173.345 194.509 184.438 201.982 191.265 211.989C193.197 210.829 195.105 209.64 196.947 208.359C193.572 200.88 188.282 194.334 181.565 189.326C164.296 176.817 139.682 177.009 122.279 164.692C113.68 158.62 107.527 149.931 99.9136 142.721C86.6492 130.418 69.4115 122.785 51.0206 121.07C49.1117 120.899 46.3032 120.576 43.2267 120.384C42.6911 124.385 42.4271 128.414 42.4364 132.447Z" fill="#76FFFF"/>
</g>
<g style="mix-blend-mode:lighten" opacity="0.25">
<path d="M217.526 108.285C219.536 108.179 221.503 108.029 223.478 107.88C225.97 107.685 230.147 107.856 234.324 107.666C233.987 106.507 233.628 105.318 233.224 104.19C228.149 106.059 222.89 107.431 217.526 108.285Z" fill="#76FFFF"/>
</g>
<g style="mix-blend-mode:lighten" opacity="0.25">
<path d="M76.2318 61.8535C95.1319 59.6784 114.299 61.357 132.472 66.7786C150.645 72.2003 167.41 81.2421 181.664 93.3084C187.188 98.093 192.465 103.458 199.36 106.163C204.372 107.946 209.719 108.706 215.057 108.394C214.561 108.394 214.045 108.352 213.552 108.309C205.401 107.557 198.348 102.557 192.691 96.8931C187.034 91.2289 182.336 84.7044 176.23 79.4907C162.261 67.5817 142.816 63.9351 124.379 60.7369C110.68 58.3542 95.9944 56.1872 82.2507 57.2825C80.1856 58.7193 78.1629 60.2437 76.2318 61.8535Z" fill="#76FFFF"/>
</g>
<path style="mix-blend-mode:screen" opacity="0.81" d="M190.502 237.03C174.587 237.03 161.685 224.701 161.685 209.493C161.685 194.284 174.587 181.956 190.502 181.956C206.418 181.956 219.32 194.284 219.32 209.493C219.32 224.701 206.418 237.03 190.502 237.03Z" fill="url(#paint2_radial)"/>
<path style="mix-blend-mode:screen" opacity="0.81" d="M209.218 185.532C209.216 187.16 209.72 188.753 210.665 190.108C211.61 191.463 212.954 192.519 214.527 193.144C216.1 193.768 217.831 193.932 219.502 193.615C221.172 193.299 222.707 192.515 223.912 191.364C225.117 190.212 225.937 188.745 226.27 187.148C226.602 185.551 226.432 183.895 225.78 182.39C225.129 180.885 224.025 179.599 222.609 178.695C221.193 177.79 219.528 177.307 217.825 177.308C215.543 177.307 213.355 178.173 211.741 179.715C210.127 181.258 209.219 183.35 209.218 185.532Z" fill="url(#paint3_radial)"/>
<defs>
<radialGradient id="paint0_radial" cx="0" cy="0" r="1" gradientUnits="userSpaceOnUse" gradientTransform="translate(139.302 133.171) rotate(180) scale(139.397 133.173)">
<stop stop-color="#E859E9"/>
<stop offset="0.297" stop-color="#E658E7"/>
<stop offset="0.437" stop-color="#DE55DF"/>
<stop offset="0.545" stop-color="#D150D2"/>
<stop offset="0.637" stop-color="#BF49C0"/>
<stop offset="0.718" stop-color="#A740A8"/>
<stop offset="0.791" stop-color="#8A358B"/>
<stop offset="0.859" stop-color="#672767"/>
<stop offset="0.922" stop-color="#3E183F"/>
<stop offset="0.979" stop-color="#120712"/>
<stop offset="1"/>
</radialGradient>
<linearGradient id="paint1_linear" x1="225.158" y1="174.622" x2="55.0771" y2="82.4051" gradientUnits="userSpaceOnUse">
<stop stop-color="#D61BDB"/>
<stop offset="0.091" stop-color="#D225DD"/>
<stop offset="0.246" stop-color="#C740E1"/>
<stop offset="0.446" stop-color="#B46BE8"/>
<stop offset="0.683" stop-color="#9BA8F1"/>
<stop offset="0.949" stop-color="#7BF4FD"/>
<stop offset="0.984" stop-color="#76FFFF"/>
</linearGradient>
<radialGradient id="paint2_radial" cx="0" cy="0" r="1" gradientUnits="userSpaceOnUse" gradientTransform="translate(190.444 209.493) rotate(180) scale(28.8246 27.5376)">
<stop stop-color="#45EDE8"/>
<stop offset="0.995"/>
</radialGradient>
<radialGradient id="paint3_radial" cx="0" cy="0" r="1" gradientUnits="userSpaceOnUse" gradientTransform="translate(-1874.11 1702.25) rotate(180) scale(65.9946 63.1106)">
<stop stop-color="#45EDE8"/>
<stop offset="0.995"/>
</radialGradient>
</defs>
</svg>
