<svg width="126" height="125" viewBox="0 0 126 125" fill="none" xmlns="http://www.w3.org/2000/svg">
<path d="M71.412 116.466C101.225 111.812 121.62 83.8742 116.965 54.065C112.31 24.2558 84.3687 3.86363 54.5556 8.51776C24.7425 13.1719 4.34764 41.1099 9.00239 70.9191C13.6571 100.728 41.5989 121.121 71.412 116.466Z" fill="url(#paint0_radial)"/>
<path d="M69.5283 104.407C92.68 100.792 108.518 79.0968 104.903 55.9482C101.288 32.7995 79.5901 16.9637 56.4384 20.578C33.2867 24.1922 17.4488 45.8878 21.0635 69.0364C24.6782 92.185 46.3766 108.021 69.5283 104.407Z" fill="url(#paint1_radial)"/>
<path style="mix-blend-mode:multiply" opacity="0.25" d="M53.5568 21.0994C61.9927 24.494 69.119 30.4646 73.9021 38.1457C78.6852 45.8267 80.8765 54.8188 80.1582 63.8179C79.44 72.817 75.8496 81.3554 69.9075 88.1948C63.9655 95.0342 55.9808 99.8191 47.1113 101.856C53.3531 104.372 60.1055 105.394 66.8203 104.839C73.535 104.283 80.023 102.165 85.7576 98.6567C91.4922 95.1486 96.3117 90.3491 99.8249 84.6479C103.338 78.9467 105.446 72.5044 105.978 65.844C106.509 59.1836 105.45 52.4927 102.884 46.3145C100.319 40.1363 96.3212 34.6449 91.2145 30.2861C86.1078 25.9272 80.0366 22.8238 73.4936 21.2276C66.9505 19.6314 60.1201 19.5875 53.5568 21.0994Z" fill="url(#paint2_radial)"/>
<path style="mix-blend-mode:screen" opacity="0.34" d="M70.6174 21.9971C80.1997 24.9097 88.3261 31.3628 93.3581 40.0552C98.3901 48.7476 99.9534 59.0328 97.7328 68.8371C95.5122 78.6413 89.6729 87.2354 81.3922 92.8866C73.1115 98.5377 63.0053 100.826 53.1113 99.2889C58.3066 100.865 63.7694 101.351 69.1596 100.716C74.5499 100.081 79.7524 98.3394 84.4436 95.5987C89.1348 92.858 93.2144 89.1772 96.4284 84.7852C99.6424 80.3932 101.922 75.384 103.126 70.0691C104.33 64.7543 104.432 59.2476 103.426 53.8915C102.419 48.5354 100.327 43.4445 97.2774 38.9355C94.2283 34.4265 90.2879 30.5959 85.7014 27.6818C81.115 24.7678 75.9804 22.8328 70.6174 21.9971Z" fill="url(#paint3_radial)"/>
<path style="mix-blend-mode:screen" opacity="0.45" d="M42.2942 96.9098C35.1028 91.6941 29.729 84.3775 26.9226 75.9809C24.1163 67.5842 24.0175 58.5264 26.6399 50.0712C29.2624 41.6161 34.4753 34.1854 41.5512 28.816C48.6272 23.4465 57.2132 20.4063 66.1113 20.1193C60.3174 19.6816 54.4945 20.4221 48.9982 22.2956C43.5018 24.169 38.4473 27.1361 34.1434 31.0157C29.8394 34.8954 26.3763 39.6061 23.9654 44.8602C21.5545 50.1144 20.2466 55.8018 20.1213 61.5751C19.996 67.3485 21.0559 73.0866 23.2366 78.4392C25.4173 83.7918 28.6729 88.6465 32.8045 92.707C36.9362 96.7674 41.8572 99.9483 47.2671 102.056C52.6771 104.163 58.4624 105.152 64.2699 104.963C56.3308 104.375 48.717 101.585 42.2942 96.9098Z" fill="url(#paint4_radial)"/>
<path style="mix-blend-mode:screen" d="M48.3368 96.394C43.5106 94.4552 38.5062 88.3819 36.138 85.4091C30.4712 78.4675 27.2956 69.8478 27.1133 60.9128C26.8742 37.4669 48.0355 26.011 56.5431 25.0622C65.0507 24.1134 66.5354 33.559 60.2356 41.8512C53.9357 50.1435 47.7327 58.3053 48.5 66.2103C49.2672 74.1153 60.4223 81.5891 58.0044 89.6369C57.2039 92.2994 55.6804 95.8832 52.7054 96.7771C51.2484 97.1545 49.7047 97.0192 48.3368 96.394Z" fill="url(#paint5_radial)"/>
<path style="mix-blend-mode:screen" opacity="0.45" d="M33.5947 62.0695C36.4202 61.3845 39.6135 65.2709 40.727 70.7495C41.8405 76.2281 40.4519 81.2253 37.6264 81.9103C34.8008 82.5953 31.6075 78.7089 30.4953 73.2303C29.3831 67.7517 30.7691 62.7545 33.5947 62.0695Z" fill="url(#paint6_radial)"/>
<path style="mix-blend-mode:screen" opacity="0.45" d="M34.4865 48.0118C36.3576 48.2599 37.4828 50.9148 36.9991 53.9418C36.5154 56.9688 34.6082 59.22 32.7371 58.9732C30.866 58.7265 29.7407 56.0702 30.2229 53.0432C30.7052 50.0162 32.6154 47.7638 34.4865 48.0118Z" fill="url(#paint7_radial)"/>
<defs>
<radialGradient id="paint0_radial" cx="0" cy="0" r="1" gradientUnits="userSpaceOnUse" gradientTransform="translate(62.9833 62.0378) scale(54.2355 54.2284)">
<stop stop-color="#3F1F7D"/>
<stop offset="0.43" stop-color="#40217E" stop-opacity="0.985"/>
<stop offset="0.585" stop-color="#422983" stop-opacity="0.931"/>
<stop offset="0.695" stop-color="#45378C" stop-opacity="0.836"/>
<stop offset="0.785" stop-color="#4B4A98" stop-opacity="0.701"/>
<stop offset="0.861" stop-color="#5264A8" stop-opacity="0.525"/>
<stop offset="0.929" stop-color="#5A83BC" stop-opacity="0.308"/>
<stop offset="0.988" stop-color="#64A8D3" stop-opacity="0.056"/>
<stop offset="1" stop-color="#66B0D8" stop-opacity="0"/>
</radialGradient>
<radialGradient id="paint1_radial" cx="0" cy="0" r="1" gradientUnits="userSpaceOnUse" gradientTransform="translate(11035.4 39311.4) rotate(-53.8684) scale(7656.69 7657)">
<stop offset="0.059" stop-color="#66B0D8"/>
<stop offset="1" stop-color="#3F1F7D"/>
</radialGradient>
<radialGradient id="paint2_radial" cx="0" cy="0" r="1" gradientUnits="userSpaceOnUse" gradientTransform="translate(16602.5 33065.4) rotate(-53.6314) scale(4804.91 6998.17)">
<stop offset="0.059" stop-color="#66B0D8"/>
<stop offset="1" stop-color="#3F1F7D"/>
</radialGradient>
<radialGradient id="paint3_radial" cx="0" cy="0" r="1" gradientUnits="userSpaceOnUse" gradientTransform="translate(16535.5 30240.9) rotate(-53.9803) scale(3432.76 5286.95)">
<stop offset="0.059" stop-color="#66B0D8"/>
<stop offset="1" stop-color="#3F1F7D"/>
</radialGradient>
<radialGradient id="paint4_radial" cx="0" cy="0" r="1" gradientUnits="userSpaceOnUse" gradientTransform="translate(43370.5 -8367.45) rotate(-143.87) scale(1226.69 2276.25)">
<stop offset="0.059" stop-color="#66B0D8"/>
<stop offset="1" stop-color="#3F1F7D"/>
</radialGradient>
<radialGradient id="paint5_radial" cx="0" cy="0" r="1" gradientUnits="userSpaceOnUse" gradientTransform="translate(16162.3 24561.3) rotate(-53.6779) scale(2128.99 4179.08)">
<stop offset="0.059" stop-color="#66B0D8"/>
<stop offset="1" stop-color="#3F1F7D"/>
</radialGradient>
<radialGradient id="paint6_radial" cx="0" cy="0" r="1" gradientUnits="userSpaceOnUse" gradientTransform="translate(8572.97 -1715.01) rotate(-141.26) scale(65.8304 112.098)">
<stop offset="0.059" stop-color="#66B0D8"/>
<stop offset="1" stop-color="#3F1F7D"/>
</radialGradient>
<radialGradient id="paint7_radial" cx="0" cy="0" r="1" gradientUnits="userSpaceOnUse" gradientTransform="translate(4854.54 -1359.35) rotate(-146.206) scale(23.1284 38.6396)">
<stop offset="0.059" stop-color="#66B0D8"/>
<stop offset="1" stop-color="#3F1F7D"/>
</radialGradient>
</defs>
</svg>
