<svg width="130" height="130" viewBox="0 0 130 130" fill="none" xmlns="http://www.w3.org/2000/svg">
<path style="mix-blend-mode:screen" d="M64.6114 129.956C100.234 129.956 129.111 101.082 129.111 65.4647C129.111 29.847 100.234 0.973145 64.6114 0.973145C28.989 0.973145 0.111328 29.847 0.111328 65.4647C0.111328 101.082 28.989 129.956 64.6114 129.956Z" fill="url(#paint0_radial)"/>
<path style="mix-blend-mode:screen" d="M64.6114 120.958C95.2632 120.958 120.111 96.1126 120.111 65.4649C120.111 34.8171 95.2632 9.97217 64.6114 9.97217C33.9596 9.97217 9.11133 34.8171 9.11133 65.4649C9.11133 96.1126 33.9596 120.958 64.6114 120.958Z" fill="url(#paint1_radial)"/>
<path style="mix-blend-mode:screen" d="M86.9093 23.7756C87.9023 27.0934 89.9624 29.9707 91.4451 33.0972C92.9278 36.2236 93.8138 39.971 92.3462 43.1057C90.5494 46.9439 86.037 48.4596 82.1966 50.2259C78.743 51.8159 75.5283 53.8836 72.6462 56.3687C69.4573 59.1221 66.5056 63.0002 67.2188 67.1592C67.9663 71.5095 72.4171 74.2051 76.669 75.3353C79.3171 76.2337 82.1958 76.1669 84.7998 75.1467C89.5331 72.8683 90.8444 66.1859 95.5708 63.895C99.3674 62.0558 103.82 63.7285 108.021 64.0699C111.868 64.3331 115.712 63.5029 119.111 61.6744C118.468 51.7022 115.141 42.092 109.486 33.8676C103.83 25.6432 96.0581 19.1126 86.9971 14.9717C86.1113 17.8346 86.0807 20.8954 86.9093 23.7756Z" fill="url(#paint2_radial)"/>
<path style="mix-blend-mode:multiply" opacity="0.25" d="M100.933 22.9702C103.783 34.463 102.928 46.5721 98.4912 57.5419C94.0545 68.5116 86.2671 77.7718 76.2581 83.9797C66.2492 90.1875 54.539 93.0204 42.8253 92.0676C31.1116 91.1148 20.0034 86.4258 11.1113 78.6805C13.2154 87.1882 17.2799 95.0758 22.9749 101.703C28.6698 108.331 35.8347 113.511 43.888 116.824C51.9413 120.136 60.656 121.488 69.3247 120.77C77.9934 120.051 86.3718 117.282 93.7799 112.687C101.188 108.092 107.417 101.801 111.961 94.3252C116.505 86.8488 119.237 78.3977 119.933 69.6578C120.63 60.918 119.273 52.1356 115.972 44.0236C112.67 35.9117 107.518 28.6987 100.933 22.9702Z" fill="url(#paint3_radial)"/>
<path style="mix-blend-mode:screen" opacity="0.34" d="M110.357 41.9678C114.645 54.2373 114.118 67.6737 108.883 79.5708C103.648 91.4679 94.0944 100.942 82.1455 106.084C70.1966 111.227 56.7406 111.656 44.4876 107.285C32.2347 102.914 22.0952 94.0682 16.1113 82.5288C18.4407 89.1867 22.1176 95.2943 26.9129 100.471C31.7082 105.648 37.5193 109.784 43.9842 112.62C50.4492 115.456 57.4296 116.933 64.4907 116.958C71.5519 116.982 78.5425 115.555 85.0272 112.764C91.512 109.973 97.3521 105.879 102.184 100.736C107.015 95.5924 110.735 89.5107 113.111 82.8694C115.487 76.228 116.469 69.1692 115.995 62.1324C115.522 55.0956 113.602 48.2315 110.357 41.9678Z" fill="url(#paint4_radial)"/>
<g style="mix-blend-mode:screen" opacity="0.45">
<path d="M12.545 69.9468C12.5449 58.482 16.1275 47.3031 22.793 37.9698C29.4584 28.6365 38.8743 21.6143 49.7269 17.883C60.5794 14.1517 72.3273 13.8973 83.3315 17.1555C94.3357 20.4136 104.047 27.0217 111.111 36.0578C107.168 29.6932 101.967 24.1985 95.8256 19.9094C89.6846 15.6202 82.7327 12.6268 75.3945 11.1118C68.0563 9.59687 60.4859 9.59225 53.1459 11.0982C45.8058 12.6042 38.8502 15.5892 32.704 19.8708C26.5577 24.1524 21.3498 29.6407 17.3985 36.0005C13.4472 42.3603 10.8353 49.4581 9.72257 56.8601C8.60981 64.2622 9.01943 71.8131 10.9265 79.0517C12.8336 86.2903 16.198 93.0645 20.8143 98.9605C15.3948 90.2525 12.5298 80.2004 12.545 69.9468Z" fill="#E0A326"/>
</g>
<path style="mix-blend-mode:screen" d="M17.6462 76.6636C15.992 70.119 18.5823 60.2058 19.9029 55.4423C22.9013 44.1685 29.5818 34.2121 38.8892 27.1459C63.4958 8.85478 91.8244 22.1983 99.3538 30.3743C106.883 38.5503 98.0305 47.3735 84.4314 47.1591C70.8323 46.9448 57.451 46.729 49.6817 53.6186C41.9123 60.5082 42.5589 77.9349 32.1979 81.5934C28.7696 82.8042 23.8123 83.9682 20.5838 81.5425C19.069 80.3032 18.031 78.5793 17.6462 76.6636Z" fill="url(#paint5_radial)"/>
<g style="mix-blend-mode:screen" opacity="0.45">
<path d="M41.534 34.0634C44.5096 36.6394 43.152 42.9373 38.4995 48.1297C33.847 53.3221 27.6643 55.447 24.6887 52.871C21.7131 50.295 23.0707 43.9984 27.7232 38.8047C32.3756 33.6109 38.5584 31.4887 41.534 34.0634Z" fill="#E0A326"/>
</g>
<g style="mix-blend-mode:screen" opacity="0.45">
<path d="M57.8189 23.5499C58.9209 25.5632 56.8125 28.727 53.106 30.6159C49.3994 32.5048 45.5058 32.4045 44.4038 30.3911C43.3018 28.3778 45.4101 25.2141 49.1166 23.3252C52.8232 21.4363 56.7169 21.5339 57.8189 23.5499Z" fill="#E0A326"/>
</g>
<defs>
<radialGradient id="paint0_radial" cx="0" cy="0" r="1" gradientUnits="userSpaceOnUse" gradientTransform="translate(65.8359 66.3703) scale(63.2328 63.2245)">
<stop stop-color="#F20074"/>
<stop offset="0.377" stop-color="#F10174" stop-opacity="0.992"/>
<stop offset="0.512" stop-color="#ED0376" stop-opacity="0.964"/>
<stop offset="0.609" stop-color="#E70679" stop-opacity="0.915"/>
<stop offset="0.687" stop-color="#DF0B7D" stop-opacity="0.845"/>
<stop offset="0.754" stop-color="#D31182" stop-opacity="0.754"/>
<stop offset="0.813" stop-color="#C51988" stop-opacity="0.642"/>
<stop offset="0.867" stop-color="#B42290" stop-opacity="0.508"/>
<stop offset="0.917" stop-color="#A02D98" stop-opacity="0.352"/>
<stop offset="0.96" stop-color="#8B39A2" stop-opacity="0.182"/>
<stop offset="1" stop-color="#7446AC" stop-opacity="0"/>
</radialGradient>
<radialGradient id="paint1_radial" cx="0" cy="0" r="1" gradientUnits="userSpaceOnUse" gradientTransform="translate(87121.5 17914.8) scale(13060.6 13058.9)">
<stop stop-color="#4A289C"/>
<stop offset="0.963" stop-color="#00092B"/>
</radialGradient>
<radialGradient id="paint2_radial" cx="0" cy="0" r="1" gradientUnits="userSpaceOnUse" gradientTransform="translate(34422.3 10531.8) scale(3217.03 3773.33)">
<stop stop-color="#F20074"/>
<stop offset="0.141" stop-color="#ED0376"/>
<stop offset="0.307" stop-color="#DF0B7D"/>
<stop offset="0.486" stop-color="#C71887"/>
<stop offset="0.674" stop-color="#A62A96"/>
<stop offset="0.868" stop-color="#7B42A9"/>
<stop offset="0.898" stop-color="#7446AC"/>
</radialGradient>
<radialGradient id="paint3_radial" cx="0" cy="0" r="1" gradientUnits="userSpaceOnUse" gradientTransform="translate(73168.3 16769.6) scale(11632.7 10457.4)">
<stop stop-color="#4A289C"/>
<stop offset="0.963" stop-color="#00092B"/>
</radialGradient>
<radialGradient id="paint4_radial" cx="0" cy="0" r="1" gradientUnits="userSpaceOnUse" gradientTransform="translate(67232.4 13852.7) scale(8747.4 6559.69)">
<stop stop-color="#F20074"/>
<stop offset="0.141" stop-color="#ED0376"/>
<stop offset="0.307" stop-color="#DF0B7D"/>
<stop offset="0.486" stop-color="#C71887"/>
<stop offset="0.674" stop-color="#A62A96"/>
<stop offset="0.868" stop-color="#7B42A9"/>
<stop offset="0.898" stop-color="#7446AC"/>
</radialGradient>
<radialGradient id="paint5_radial" cx="0" cy="0" r="1" gradientUnits="userSpaceOnUse" gradientTransform="translate(56811 10819.6) scale(6402.2 4895.16)">
<stop stop-color="#4A289C"/>
<stop offset="0.963" stop-color="#00092B"/>
</radialGradient>
</defs>
</svg>
