<svg width="94" height="63" viewBox="0 0 94 63" fill="none" xmlns="http://www.w3.org/2000/svg">
<path d="M55.5461 54.8973C68.2628 50.4249 74.9456 36.4917 70.4726 23.7767C65.9996 11.0617 52.0645 4.37973 39.3479 8.85216C26.6312 13.3246 19.9484 27.2578 24.4214 39.9728C28.8944 52.6878 42.8294 59.3697 55.5461 54.8973Z" fill="url(#paint0_radial)"/>
<g style="mix-blend-mode:screen" opacity="0.45">
<path d="M28.3098 31.8866C31.1597 28.7963 34.863 26.6072 38.9581 25.5923C43.0531 24.5773 47.3585 24.7814 51.3374 26.1791C55.3163 27.5769 58.7927 30.1064 61.3329 33.4522C63.8731 36.798 65.3647 40.812 65.6218 44.9937C67.4802 42.1642 68.6355 38.9372 68.9926 35.5782C69.3497 32.2191 68.8984 28.8239 67.6759 25.6716C66.4533 22.5194 64.4943 19.7003 61.9601 17.4461C59.4259 15.1918 56.3888 13.5668 53.0986 12.7048C49.8083 11.8427 46.3589 11.7682 43.034 12.4873C39.7091 13.2064 36.6036 14.6987 33.9729 16.8413C31.3423 18.9839 29.2616 21.7158 27.902 24.8122C26.5423 27.9086 25.9426 31.2811 26.1521 34.6524C26.7941 33.6736 27.5157 32.7486 28.3098 31.8866Z" fill="#E0A326"/>
</g>
<path style="mix-blend-mode:multiply" opacity="0.5" d="M71.8023 28.2228C69.5434 32.9727 65.6175 36.7718 60.7385 38.9291C55.8594 41.0865 50.3512 41.4588 45.2153 39.9786C40.0794 38.4983 35.6569 35.2637 32.7519 30.8629C29.8469 26.4621 28.6524 21.1873 29.3854 15.9976C26.6198 19.0101 24.6791 22.659 23.7444 26.6038C22.8097 30.5487 22.9115 34.661 24.0401 38.557C25.1688 42.453 27.2877 46.0058 30.199 48.8838C33.1103 51.7618 36.7192 53.8713 40.689 55.0155C44.6588 56.1596 48.8601 56.3012 52.901 55.4269C56.9418 54.5526 60.6904 52.6909 63.7971 50.0156C66.9038 47.3403 69.2673 43.9386 70.6672 40.1278C72.067 36.3169 72.4575 32.2212 71.8023 28.2228Z" fill="url(#paint1_radial)"/>
<path style="mix-blend-mode:multiply" opacity="0.5" d="M69.1113 37.9937C66.829 43.3279 62.617 47.5971 57.3228 49.9423C52.0287 52.2876 46.0453 52.5348 40.5767 50.6342C35.1082 48.7337 30.5603 44.8265 27.8482 39.6987C25.1361 34.571 24.4611 28.6033 25.959 22.9966C24.722 25.8944 24.0931 29.0166 24.1117 32.1687C24.1303 35.3208 24.7959 38.4354 26.067 41.3183C27.3381 44.2012 29.1875 46.7907 31.5 48.9255C33.8124 51.0603 36.5385 52.6947 39.5082 53.7268C42.478 54.7589 45.6278 55.1666 48.7616 54.9246C51.8953 54.6826 54.9457 53.7959 57.7229 52.32C60.5001 50.844 62.9445 48.8103 64.9038 46.3456C66.8631 43.8808 68.2953 41.0378 69.1113 37.9937Z" fill="url(#paint2_radial)"/>
<path style="mix-blend-mode:multiply" opacity="0.5" d="M42.964 48.6139C44.5476 47.1133 44.14 44.1123 42.0535 41.9111C39.9671 39.7098 36.992 39.1418 35.4084 40.6423C33.8248 42.1429 34.2324 45.1439 36.3189 47.3451C38.4053 49.5464 41.3804 50.1145 42.964 48.6139Z" fill="url(#paint3_radial)"/>
<path style="mix-blend-mode:multiply" opacity="0.5" d="M44.1113 46.7056C44.0361 46.7864 43.9557 46.8633 43.8706 46.9361C42.1838 48.3369 39.0159 47.8065 36.7948 45.7503C36.0737 45.1446 35.5257 44.3982 35.1956 43.5717C34.8656 42.7453 34.7626 41.8621 34.8952 40.9941C33.5036 42.4555 33.9998 45.0743 36.1063 47.0236C38.3274 49.0837 41.4954 49.6103 43.1806 48.2095C43.6582 47.803 43.9829 47.2783 44.1113 46.7056Z" fill="url(#paint4_radial)"/>
<path style="mix-blend-mode:multiply" opacity="0.5" d="M63.8859 45.3216C64.6527 46.857 62.3847 49.4596 58.8209 51.1328C55.257 52.8061 51.7467 52.918 50.9799 51.3826C50.2131 49.8472 52.4811 47.2432 56.0449 45.57C59.6087 43.8968 63.1191 43.7836 63.8859 45.3216ZM47.7481 52.7405C46.306 52.7092 45.1255 53.1882 45.1115 53.8092C45.0974 54.4301 46.2553 54.961 47.6974 54.991C49.1396 55.0211 50.32 54.5434 50.3341 53.9224C50.3482 53.3015 49.1902 52.7692 47.7481 52.7392V52.7405ZM65.4012 40.272C64.3502 41.9206 64.111 43.6239 64.8665 44.077C65.6221 44.5301 67.0853 43.5597 68.1363 41.9124C69.1873 40.2652 69.4251 38.5592 68.6709 38.1061C67.9168 37.653 66.4508 38.622 65.4012 40.272ZM60.7076 40.9899C59.3766 41.5289 58.4987 42.4324 58.7378 43.0056C58.977 43.5788 60.2644 43.6075 61.5954 43.0684C62.9264 42.5293 63.8057 41.6272 63.5581 41.0526C63.3104 40.4781 62.0386 40.4494 60.7076 40.9885V40.9899Z" fill="url(#paint5_radial)"/>
<path style="mix-blend-mode:multiply" opacity="0.5" d="M49.5213 52.9927C49.4216 53.6377 48.3387 54.1261 47.0146 54.0929C46.3609 54.0946 45.7156 53.9275 45.129 53.6046C45.1214 53.6312 45.1155 53.6584 45.1114 53.686C45.098 54.3732 46.2065 54.958 47.5871 54.9912C48.9677 55.0244 50.0978 54.4968 50.1112 53.8096C50.1166 53.5081 49.889 53.2188 49.5213 52.9927Z" fill="url(#paint6_radial)"/>
<path style="mix-blend-mode:color" d="M47.5413 61.7C64.0158 61.6491 77.3298 48.2544 77.2789 31.7821C77.228 15.3098 63.8315 1.99758 47.357 2.04847C30.8825 2.09937 17.5686 15.4941 17.6195 31.9664C17.6704 48.4387 31.0668 61.7509 47.5413 61.7Z" fill="url(#paint7_radial)"/>
<path d="M93.0089 43.4612C94.1753 39.0486 85.2798 32.5676 71.2287 26.7017C71.4257 27.6799 71.5275 28.6751 71.5326 29.6733C80.1256 33.8252 85.2579 38.1068 84.4488 41.1611C83.0717 46.3638 65.0095 46.0315 44.1164 40.4151C23.2233 34.7987 7.39536 26.0301 8.77254 20.8261C9.6473 17.5263 17.2341 16.4562 27.9941 17.5442C28.4068 16.7057 28.9239 15.9235 29.5329 15.2166C13.3476 12.8517 1.4349 13.9135 0.21378 18.526C-1.47552 24.9063 17.9268 35.6619 43.551 42.5469C69.1753 49.4319 91.3183 49.847 93.0089 43.4612Z" fill="#E0A326"/>
<g style="mix-blend-mode:multiply" opacity="0.54">
<path d="M74.5849 29.2005C74.7341 28.944 74.9397 28.7251 75.186 28.5605C73.8861 27.9636 72.5319 27.3722 71.1234 26.7864C71.3222 27.7712 71.4249 28.7732 71.4301 29.778C80.1039 33.958 85.2844 38.2685 84.4677 41.3434C83.0776 46.5812 64.8457 46.2467 43.7563 40.5924C22.6668 34.9381 6.69011 26.1103 8.08023 20.8711C8.96322 17.549 16.6213 16.4718 27.4825 17.5671C27.8991 16.7229 28.421 15.9354 29.0356 15.2237C20.0399 13.9119 12.3556 13.6495 7.06458 14.4519C12.5919 14.4172 22.0173 14.513 21.3264 15.5805C20.3592 17.0854 2.11902 13.2969 6.91258 23.313C11.7061 33.3291 41.128 40.8048 52.571 43.5299C64.0139 46.255 80.0542 47.224 86.7602 43.7964C93.4662 40.3689 72.9446 32.0894 74.5849 29.2005Z" fill="#E0A326"/>
</g>
<defs>
<radialGradient id="paint0_radial" cx="0" cy="0" r="1" gradientUnits="userSpaceOnUse" gradientTransform="translate(16434.6 -13988.2) rotate(42.4639) scale(1900.86 1900.83)">
<stop stop-color="#F20074"/>
<stop offset="0.141" stop-color="#ED0376"/>
<stop offset="0.307" stop-color="#DF0B7D"/>
<stop offset="0.486" stop-color="#C71887"/>
<stop offset="0.674" stop-color="#A62A96"/>
<stop offset="0.868" stop-color="#7B42A9"/>
<stop offset="0.898" stop-color="#7446AC"/>
</radialGradient>
<radialGradient id="paint1_radial" cx="0" cy="0" r="1" gradientUnits="userSpaceOnUse" gradientTransform="translate(13913.6 -10974.3) rotate(41.8667) scale(1767.2 1470.94)">
<stop stop-color="#F20074"/>
<stop offset="0.141" stop-color="#ED0376"/>
<stop offset="0.307" stop-color="#DF0B7D"/>
<stop offset="0.486" stop-color="#C71887"/>
<stop offset="0.674" stop-color="#A62A96"/>
<stop offset="0.868" stop-color="#7B42A9"/>
<stop offset="0.898" stop-color="#7446AC"/>
</radialGradient>
<radialGradient id="paint2_radial" cx="0" cy="0" r="1" gradientUnits="userSpaceOnUse" gradientTransform="translate(10976.1 -8255.39) rotate(42.5691) scale(1378.95 977.847)">
<stop stop-color="#F20074"/>
<stop offset="0.141" stop-color="#ED0376"/>
<stop offset="0.307" stop-color="#DF0B7D"/>
<stop offset="0.486" stop-color="#C71887"/>
<stop offset="0.674" stop-color="#A62A96"/>
<stop offset="0.868" stop-color="#7B42A9"/>
<stop offset="0.898" stop-color="#7446AC"/>
</radialGradient>
<radialGradient id="paint3_radial" cx="0" cy="0" r="1" gradientUnits="userSpaceOnUse" gradientTransform="translate(2369.94 -1499.09) rotate(46.5342) scale(86.1222 193.722)">
<stop stop-color="#F20074"/>
<stop offset="0.141" stop-color="#ED0376"/>
<stop offset="0.307" stop-color="#DF0B7D"/>
<stop offset="0.486" stop-color="#C71887"/>
<stop offset="0.674" stop-color="#A62A96"/>
<stop offset="0.868" stop-color="#7B42A9"/>
<stop offset="0.898" stop-color="#7446AC"/>
</radialGradient>
<radialGradient id="paint4_radial" cx="0" cy="0" r="1" gradientUnits="userSpaceOnUse" gradientTransform="translate(2826.5 -1624.98) rotate(38.7743) scale(108.297 96.8181)">
<stop stop-color="#F20074"/>
<stop offset="0.141" stop-color="#ED0376"/>
<stop offset="0.307" stop-color="#DF0B7D"/>
<stop offset="0.486" stop-color="#C71887"/>
<stop offset="0.674" stop-color="#A62A96"/>
<stop offset="0.868" stop-color="#7B42A9"/>
<stop offset="0.898" stop-color="#7446AC"/>
</radialGradient>
<radialGradient id="paint5_radial" cx="0" cy="0" r="1" gradientUnits="userSpaceOnUse" gradientTransform="translate(13866.8 -3621.31) rotate(-25.1573) scale(558.346 399.929)">
<stop stop-color="#F20074"/>
<stop offset="0.141" stop-color="#ED0376"/>
<stop offset="0.307" stop-color="#DF0B7D"/>
<stop offset="0.486" stop-color="#C71887"/>
<stop offset="0.674" stop-color="#A62A96"/>
<stop offset="0.868" stop-color="#7B42A9"/>
<stop offset="0.898" stop-color="#7446AC"/>
</radialGradient>
<radialGradient id="paint6_radial" cx="0" cy="0" r="1" gradientUnits="userSpaceOnUse" gradientTransform="translate(543.446 355.767) rotate(45.703) scale(35.4687 12.7241)">
<stop stop-color="#F20074"/>
<stop offset="0.141" stop-color="#ED0376"/>
<stop offset="0.307" stop-color="#DF0B7D"/>
<stop offset="0.486" stop-color="#C71887"/>
<stop offset="0.674" stop-color="#A62A96"/>
<stop offset="0.868" stop-color="#7B42A9"/>
<stop offset="0.898" stop-color="#7446AC"/>
</radialGradient>
<radialGradient id="paint7_radial" cx="0" cy="0" r="1" gradientUnits="userSpaceOnUse" gradientTransform="translate(19964 -16408.4) rotate(42.5092) scale(1302.05 1302.04)">
<stop stop-color="#3F1F7D"/>
<stop offset="0.43" stop-color="#40217E" stop-opacity="0.985"/>
<stop offset="0.585" stop-color="#422983" stop-opacity="0.931"/>
<stop offset="0.695" stop-color="#45378C" stop-opacity="0.836"/>
<stop offset="0.785" stop-color="#4B4A98" stop-opacity="0.701"/>
<stop offset="0.861" stop-color="#5264A8" stop-opacity="0.525"/>
<stop offset="0.929" stop-color="#5A83BC" stop-opacity="0.308"/>
<stop offset="0.988" stop-color="#64A8D3" stop-opacity="0.056"/>
<stop offset="1" stop-color="#66B0D8" stop-opacity="0"/>
</radialGradient>
</defs>
</svg>
