<svg width="21" height="17" viewBox="0 0 21 17" fill="none" xmlns="http://www.w3.org/2000/svg">
<path d="M20.9541 2.00327C20.1795 2.3433 19.3591 2.56786 18.5191 2.66976C19.4045 2.13909 20.0674 1.30601 20.3849 0.324799C19.5475 0.809808 18.636 1.1543 17.6868 1.34454C17.0484 0.663502 16.2029 0.211861 15.2813 0.0596901C14.3597 -0.0924809 13.4135 0.0633257 12.5897 0.502937C11.7658 0.942548 11.1102 1.64139 10.7247 2.49103C10.3392 3.34067 10.2453 4.29361 10.4575 5.202C6.93082 5.03732 3.80448 3.34528 1.71357 0.78914C1.33294 1.43553 1.13388 2.17243 1.13732 2.92227C1.1368 3.61934 1.30867 4.30575 1.63766 4.92055C1.96666 5.53535 2.4426 6.05951 3.02321 6.44649C2.35036 6.42618 1.69216 6.24525 1.10369 5.91885V5.96987C1.10348 6.9483 1.44207 7.8967 2.06206 8.65434C2.68206 9.41198 3.54532 9.93226 4.50554 10.127C4.14181 10.224 3.76705 10.2737 3.39056 10.2749C3.11828 10.2749 2.8583 10.2484 2.59895 10.2006C2.87222 11.0426 3.40156 11.7785 4.1133 12.306C4.82504 12.8335 5.68376 13.1263 6.56994 13.1436C5.06847 14.3178 3.2158 14.9548 1.30871 14.9525C0.970918 14.9539 0.633355 14.9349 0.297852 14.8957C2.2433 16.1405 4.50578 16.8013 6.81634 16.7996C14.6206 16.7996 18.8852 10.3446 18.8852 4.75445C18.8852 4.5762 18.8852 4.39473 18.8716 4.21261C19.7058 3.61558 20.4247 2.87251 20.9935 2.01942L20.9541 2.00327Z" fill="white"/>
</svg>
