<svg width="624" height="623" viewBox="0 0 624 623" fill="none" xmlns="http://www.w3.org/2000/svg">
<path style="mix-blend-mode:screen" d="M467.312 467.25C553.341 381.232 553.341 241.768 467.312 155.75C381.282 69.7316 241.8 69.7316 155.771 155.75C69.7408 241.768 69.7408 381.232 155.771 467.25C241.8 553.268 381.282 553.268 467.312 467.25Z" fill="url(#paint0_radial)"/>
<path style="mix-blend-mode:screen" d="M338.536 498.185C441.653 483.278 513.16 387.612 498.251 284.508C483.342 181.404 387.662 109.907 284.545 124.814C181.428 139.721 109.921 235.388 124.83 338.491C139.739 441.595 235.418 513.092 338.536 498.185Z" fill="url(#paint1_radial)"/>
<path style="mix-blend-mode:screen" d="M338.536 498.185C441.653 483.278 513.16 387.612 498.251 284.508C483.342 181.404 387.662 109.907 284.545 124.814C181.428 139.721 109.921 235.388 124.83 338.491C139.739 441.595 235.418 513.092 338.536 498.185Z" fill="url(#paint2_radial)"/>
<path style="mix-blend-mode:screen" d="M239.313 391.539C241.766 393.304 244.736 394.204 247.756 394.098C253.568 393.33 256.254 386.332 256.312 380.466C256.451 366.554 248.787 353.818 240.391 342.719C231.996 331.62 222.438 320.989 217.687 307.914C212.935 294.838 214.372 278.213 225.329 269.64C236.824 260.639 253.747 263.621 266.996 257.463C268.834 256.747 270.426 255.516 271.583 253.918C274.105 249.876 271.243 244.742 268.546 240.817C253.195 218.488 240.377 193.568 237.299 166.631C236.204 156.962 236.547 147.185 238.319 137.618C203.139 152.491 173.282 177.658 152.672 209.812C154.817 210.291 156.908 210.988 158.911 211.892C180.307 221.865 183.94 250.088 185.786 273.62C187.54 296.018 190.391 318.592 198.377 339.591C206.363 360.589 219.986 380.086 239.313 391.539Z" fill="url(#paint3_radial)"/>
<path style="mix-blend-mode:screen" d="M289.405 498.788C289.039 486.07 288.089 473.594 281.28 463.145C269.949 445.768 246.192 440.93 225.636 443.718C220.26 444.449 214.536 445.545 209.595 443.298C206.64 441.732 204.057 439.548 202.022 436.895C181.437 413.068 170.589 382.578 154.741 355.371C147.796 343.472 137.361 330.885 123.882 330.86C128.294 373.486 147.09 413.34 177.175 443.862C207.26 474.384 246.842 493.756 289.405 498.788Z" fill="url(#paint4_radial)"/>
<path style="mix-blend-mode:screen" d="M310.97 122.875C309.874 122.875 308.799 122.948 307.71 122.97C305.394 126.045 303.576 129.465 302.323 133.104C299.505 141.411 299.333 150.986 293.744 157.747C290.696 161.441 286.329 163.857 283.24 167.519C275.565 176.626 278.098 191.13 285.612 200.384C293.127 209.637 304.322 214.932 315.053 220.118C325.784 225.304 336.862 231.052 343.723 240.795C346.546 244.849 348.528 249.428 349.552 254.262C350.576 259.095 350.621 264.084 349.684 268.935C347.981 277.497 343.2 285.723 344.348 294.377C345.843 305.651 357.579 313.476 368.946 313.83C380.313 314.185 391.076 308.714 400.378 302.18C404.751 298.648 409.577 295.719 414.728 293.471C428.982 288.355 444.618 296.84 455.569 307.325C466.519 317.81 475.558 330.787 488.931 337.924C491.71 339.453 494.736 340.478 497.871 340.954C502.137 313.979 500.494 286.4 493.055 260.123C485.616 233.846 472.56 209.497 454.787 188.76C437.015 168.023 414.95 151.392 390.119 140.017C365.289 128.641 338.283 122.793 310.97 122.875Z" fill="url(#paint5_radial)"/>
<path style="mix-blend-mode:screen" d="M453.403 388.886C442.073 392.322 432.277 399.411 421.605 404.528C410.932 409.644 398.154 412.714 387.431 407.718C374.306 401.597 369.079 386.157 363.008 373C357.544 361.178 350.45 350.179 341.933 340.325C332.507 329.428 319.218 319.345 305.018 321.837C290.164 324.443 281.009 339.723 277.193 354.308C274.788 363.495 273.783 373.629 277.924 382.177C285.753 398.373 308.593 402.803 316.462 418.981C322.785 431.973 317.116 447.249 315.994 461.655C315.133 474.844 318.007 488.009 324.287 499.64C358.339 497.332 391.127 485.832 419.158 466.364C447.19 446.896 469.414 420.19 483.465 389.091C473.68 386.088 463.228 386.017 453.403 388.886Z" fill="url(#paint6_radial)"/>
<path style="mix-blend-mode:multiply" opacity="0.25" d="M455.1 433.428C416.249 443.273 375.272 440.487 338.111 425.474C300.951 410.461 269.54 384.002 248.435 349.934C227.33 315.866 217.628 275.961 220.737 236.008C223.846 196.055 239.604 158.13 265.725 127.736C236.968 134.998 210.329 148.936 187.969 168.421C165.609 187.906 148.16 212.387 137.036 239.879C125.913 267.37 121.43 297.097 123.95 326.645C126.47 356.194 135.923 384.732 151.541 409.943C167.16 435.155 188.503 456.329 213.84 471.746C239.176 487.164 267.791 496.391 297.363 498.679C326.934 500.967 356.629 496.251 384.035 484.913C411.442 473.576 435.789 455.937 455.1 433.428Z" fill="url(#paint7_radial)"/>
<path style="mix-blend-mode:screen" opacity="0.34" d="M390.975 467.355C349.102 482.102 303.196 480.438 262.502 462.696C221.807 444.955 189.347 412.455 171.659 371.742C153.971 331.029 152.369 285.126 167.175 243.279C181.981 201.431 212.095 166.748 251.454 146.213C228.727 154.224 207.893 166.829 190.251 183.242C172.608 199.654 158.535 219.523 148.906 241.611C139.278 263.699 134.302 287.533 134.287 311.627C134.272 335.722 139.22 359.562 148.821 381.661C158.422 403.761 172.472 423.647 190.094 440.081C207.717 456.515 228.535 469.145 251.252 477.185C273.969 485.224 298.098 488.5 322.137 486.809C346.175 485.118 369.608 478.496 390.975 467.355Z" fill="url(#paint8_radial)"/>
<path style="mix-blend-mode:screen" opacity="0.45" d="M294.266 134.628C333.548 134.492 371.893 146.624 403.946 169.33C435.999 192.036 460.161 224.183 473.059 261.282C485.958 298.382 486.948 338.582 475.892 376.272C464.836 413.961 442.286 447.258 411.39 471.514C433.158 457.96 451.933 440.11 466.568 419.055C481.202 398 491.39 374.182 496.507 349.057C501.624 323.932 501.564 298.028 496.33 272.927C491.096 247.826 480.798 224.056 466.066 203.07C451.334 182.083 432.476 164.32 410.646 150.866C388.815 137.413 364.47 128.552 339.099 124.824C313.728 121.096 287.862 122.58 263.084 129.185C238.306 135.79 215.134 147.378 194.986 163.239C224.752 144.605 259.148 134.693 294.266 134.628Z" fill="url(#paint9_radial)"/>
<path style="mix-blend-mode:screen" d="M273.089 150.847C295.461 145.157 329.401 153.869 345.706 158.328C384.305 168.431 418.437 191.108 442.705 222.775C505.534 306.503 460.18 403.263 432.285 429.013C404.39 454.762 374.112 424.671 374.708 378.296C375.304 331.92 375.903 286.279 352.267 259.853C328.63 233.428 269.003 235.811 256.382 200.515C252.204 188.821 248.173 171.945 256.44 160.912C260.661 155.735 266.543 152.179 273.089 150.847Z" fill="url(#paint10_radial)"/>
<path style="mix-blend-mode:screen" opacity="0.45" d="M417.948 234.201C426.909 223.962 419.433 202.765 401.251 186.857C383.069 170.948 361.066 166.352 352.105 176.591C343.144 186.83 350.619 208.027 368.801 223.935C386.983 239.843 408.987 244.439 417.948 234.201Z" fill="url(#paint11_radial)"/>
<defs>
<radialGradient id="paint0_radial" cx="0" cy="0" r="1" gradientUnits="userSpaceOnUse" gradientTransform="translate(312.634 311.502) scale(216.726 216.697)">
<stop offset="0.052" stop-color="#E0A326"/>
<stop offset="0.414" stop-color="#E0A227" stop-opacity="0.992"/>
<stop offset="0.545" stop-color="#DF9E2B" stop-opacity="0.961"/>
<stop offset="0.638" stop-color="#DE9833" stop-opacity="0.908"/>
<stop offset="0.714" stop-color="#DD8F3E" stop-opacity="0.833"/>
<stop offset="0.778" stop-color="#DB844C" stop-opacity="0.735"/>
<stop offset="0.835" stop-color="#D8755D" stop-opacity="0.613"/>
<stop offset="0.887" stop-color="#D56471" stop-opacity="0.469"/>
<stop offset="0.934" stop-color="#D25089" stop-opacity="0.3"/>
<stop offset="0.977" stop-color="#CE3BA3" stop-opacity="0.116"/>
<stop offset="1" stop-color="#CC2DB4" stop-opacity="0"/>
</radialGradient>
<radialGradient id="paint1_radial" cx="0" cy="0" r="1" gradientUnits="userSpaceOnUse" gradientTransform="translate(151429 -215792) rotate(89.828) scale(57101.9 57109.4)">
<stop offset="0.052" stop-color="#E0A326"/>
<stop offset="1" stop-color="#CC2DB4"/>
</radialGradient>
<radialGradient id="paint2_radial" cx="0" cy="0" r="1" gradientUnits="userSpaceOnUse" gradientTransform="translate(151429 -215792) rotate(89.828) scale(57101.9 57109.4)">
<stop offset="0.052" stop-color="#E0A326"/>
<stop offset="1" stop-color="#CC2DB4"/>
</radialGradient>
<radialGradient id="paint3_radial" cx="0" cy="0" r="1" gradientUnits="userSpaceOnUse" gradientTransform="translate(99109.6 -68505.2) rotate(89.828) scale(9539.84 20415.3)">
<stop stop-color="#F20074"/>
<stop offset="0.141" stop-color="#ED0376"/>
<stop offset="0.307" stop-color="#DF0B7D"/>
<stop offset="0.486" stop-color="#C71887"/>
<stop offset="0.674" stop-color="#A62A96"/>
<stop offset="0.868" stop-color="#7B42A9"/>
<stop offset="0.898" stop-color="#7446AC"/>
</radialGradient>
<radialGradient id="paint4_radial" cx="0" cy="0" r="1" gradientUnits="userSpaceOnUse" gradientTransform="translate(64106.7 -95351.2) rotate(89.828) scale(13181.7 13376.7)">
<stop stop-color="#F20074"/>
<stop offset="0.141" stop-color="#ED0376"/>
<stop offset="0.307" stop-color="#DF0B7D"/>
<stop offset="0.486" stop-color="#C71887"/>
<stop offset="0.674" stop-color="#A62A96"/>
<stop offset="0.868" stop-color="#7B42A9"/>
<stop offset="0.898" stop-color="#7446AC"/>
</radialGradient>
<radialGradient id="paint5_radial" cx="0" cy="0" r="1" gradientUnits="userSpaceOnUse" gradientTransform="translate(83882.5 -128338) rotate(89.828) scale(17633.9 17358.1)">
<stop stop-color="#F20074"/>
<stop offset="0.141" stop-color="#ED0376"/>
<stop offset="0.307" stop-color="#DF0B7D"/>
<stop offset="0.486" stop-color="#C71887"/>
<stop offset="0.674" stop-color="#A62A96"/>
<stop offset="0.868" stop-color="#7B42A9"/>
<stop offset="0.898" stop-color="#7446AC"/>
</radialGradient>
<radialGradient id="paint6_radial" cx="0" cy="0" r="1" gradientUnits="userSpaceOnUse" gradientTransform="translate(68063.1 -120484) rotate(89.828) scale(16580.4 14182.7)">
<stop stop-color="#F20074"/>
<stop offset="0.141" stop-color="#ED0376"/>
<stop offset="0.307" stop-color="#DF0B7D"/>
<stop offset="0.486" stop-color="#C71887"/>
<stop offset="0.674" stop-color="#A62A96"/>
<stop offset="0.868" stop-color="#7B42A9"/>
<stop offset="0.898" stop-color="#7446AC"/>
</radialGradient>
<radialGradient id="paint7_radial" cx="0" cy="0" r="1" gradientUnits="userSpaceOnUse" gradientTransform="translate(144634 -189306) rotate(89.828) scale(45550.7 51009.9)">
<stop offset="0.052" stop-color="#E0A326"/>
<stop offset="1" stop-color="#CC2DB4"/>
</radialGradient>
<radialGradient id="paint8_radial" cx="0" cy="0" r="1" gradientUnits="userSpaceOnUse" gradientTransform="translate(126872 -145518) rotate(89.828) scale(28880.8 38380.3)">
<stop offset="0.052" stop-color="#E0A326"/>
<stop offset="1" stop-color="#CC2DB4"/>
</radialGradient>
<radialGradient id="paint9_radial" cx="0" cy="0" r="1" gradientUnits="userSpaceOnUse" gradientTransform="translate(26674.6 41473.1) scale(13686 15630.6)">
<stop offset="0.052" stop-color="#E0A326"/>
<stop offset="1" stop-color="#CC2DB4"/>
</radialGradient>
<radialGradient id="paint10_radial" cx="0" cy="0" r="1" gradientUnits="userSpaceOnUse" gradientTransform="translate(114186 -126987) rotate(89.828) scale(21579.9 28053.7)">
<stop offset="0.052" stop-color="#E0A326"/>
<stop offset="1" stop-color="#CC2DB4"/>
</radialGradient>
<radialGradient id="paint11_radial" cx="0" cy="0" r="1" gradientUnits="userSpaceOnUse" gradientTransform="translate(5138.82 8338.01) scale(478.72 849.881)">
<stop offset="0.052" stop-color="#E0A326"/>
<stop offset="1" stop-color="#CC2DB4"/>
</radialGradient>
</defs>
</svg>
