<svg width="19" height="15" viewBox="0 0 19 15" fill="none" xmlns="http://www.w3.org/2000/svg">
<path d="M18.1801 2.30569C18.6023 3.9498 18.6023 7.38196 18.6023 7.38196C18.6023 7.38196 18.6023 10.8141 18.1801 12.4582C17.9454 13.367 17.2589 14.082 16.3895 14.3238C14.8106 14.7629 9.36316 14.7629 9.36316 14.7629C9.36316 14.7629 3.91854 14.7629 2.3368 14.3238C1.4637 14.0784 0.778154 13.3642 0.546252 12.4582C0.124023 10.8141 0.124023 7.38196 0.124023 7.38196C0.124023 7.38196 0.124023 3.9498 0.546252 2.30569C0.780926 1.3969 1.46739 0.681872 2.3368 0.440145C3.91854 0.000976398 9.36316 0.000976562 9.36316 0.000976562C9.36316 0.000976562 14.8106 0.000976398 16.3895 0.440145C17.2626 0.685562 17.9482 1.39967 18.1801 2.30569ZM7.51533 10.6111L13.0588 7.38196L7.51533 4.15278V10.6111Z" fill="white"/>
</svg>
