<svg width="837" height="268" viewBox="0 0 837 268" fill="none" xmlns="http://www.w3.org/2000/svg">
<path d="M789.754 0.0617683C763.2 1.53111 739.469 15.4445 717.024 28.9406C711.533 32.2421 705.907 35.6706 702.01 40.6047C697.651 46.1192 695.866 53.0124 693.005 59.3614C682.771 82.0364 658.618 97.0019 633.37 103.224C608.122 109.428 581.549 108.122 555.533 106.398C536.832 105.165 517.901 103.696 500.199 97.9089C481.709 91.8502 464.371 81.075 444.807 80.4945C416.698 79.6601 398.631 100.666 388.474 122.634C385.747 128.547 382.522 134.261 379.104 139.849C374.918 146.706 369.6 150.751 362.477 154.723C328.435 173.68 296.851 196.591 268.647 222.748C262.08 228.843 255.552 235.192 247.411 239.22C232.954 246.349 215.674 245.115 199.43 243.7C173.587 241.451 147.725 239.201 121.882 236.952C116.141 236.444 109.574 235.483 106.579 230.839C103.45 225.977 105.907 219.792 106.887 214.168C109.037 201.615 101.568 188.754 90.4129 182.151C83.1169 177.834 73.6704 179.104 67.0848 173.734C62.688 170.142 60.7104 164.737 57.024 160.601C51.1296 153.98 42.0481 151.857 33.5233 149.807C22.3488 147.123 11.232 147.141 0 145.436C19.776 148.411 28.3392 172.301 46.9248 179.358C57.0816 183.203 70.3297 182.169 76.8769 190.459C82.2913 197.316 79.968 207.184 75.6288 214.676C71.2896 222.186 65.1264 228.952 62.9952 237.26C62.3808 239.673 62.112 242.213 62.784 244.607C63.84 248.417 67.1233 251.355 70.7521 253.278C92.0833 264.561 117.792 245.061 142.138 247.074C154.042 248.054 164.563 254.04 175.008 258.992C188.352 265.323 202.387 268.987 217.402 266.266C234.951 263.11 249.293 251.373 261.773 239.292C289.747 212.191 316.128 179.176 355.162 170.632C361.191 169.308 367.546 168.655 373.517 170.161C379.162 171.575 384.039 174.804 388.992 177.743C411.264 190.931 437.031 198.822 463.258 200.491C482.554 201.724 505.824 197.098 512.87 180.083C514.618 175.875 515.175 171.176 517.709 167.331C526.08 154.56 546.701 159.984 562.099 156.265C568.512 154.723 574.253 151.368 580.512 149.372C607.93 140.61 635.904 158.587 660.058 173.643C684.211 188.7 717.773 201.271 740.199 183.965C754.061 173.263 758.17 154.433 771.322 142.951C780.941 134.552 794.189 131.087 805.191 124.375C816.192 117.663 825.351 104.566 819.802 93.3558C792.73 98.2536 766.771 108.521 744.058 123.287C721.939 137.69 698.669 157.408 672.288 152.619C670.157 135.84 689.242 124.321 705.715 117.7C722.17 111.079 741.696 101.192 741.715 84.2858C741.715 81.0387 740.947 77.701 742.061 74.6353C744.346 68.3044 752.832 66.69 759.821 65.656C785.933 61.7922 811.028 51.8333 832.224 36.886C834.279 35.4348 836.429 33.7296 836.851 31.3533C837.255 29.0676 835.93 26.8545 834.663 24.8591C825.351 10.2746 807.744 -0.935932 789.754 0.0617683Z" fill="#45387D"/>
<path d="M221.21 153.681C232.787 146.443 242.138 134.743 242.541 121.646C242.694 116.639 241.562 111.56 242.733 106.662C243.635 102.871 245.862 99.4785 248.205 96.2859C253.274 89.2839 258.957 82.4451 265.696 76.8035C271.207 72.2141 275.047 65.7381 272.858 58.6091C271.783 55.1081 269.44 51.8247 269.574 48.1786C269.805 41.757 277.159 37.9295 283.667 36.0611C290.925 33.975 299.085 32.7596 305.863 35.9704C312.64 39.1812 316.461 48.4326 311.469 53.8383C313.811 51.2987 324.026 51.6433 327.29 51.6978C332.589 51.7885 337.869 52.7862 342.976 54.0378C348.314 55.3439 351.328 59.1533 355.533 62.1464C363.347 67.7154 373.274 69.6564 382.663 71.4704C387.808 72.4681 392.954 73.4476 398.119 74.4453C386.349 78.2003 373.351 78.5268 361.389 75.3342C355.84 73.8649 350.503 71.6155 344.819 70.5634C339.731 69.6201 334.528 70.0736 329.402 70.3094C325.85 70.4727 322.374 70.8899 318.88 71.5248C301.696 74.6811 281.536 78.291 270.63 92.5853C261.088 105.12 261.76 122.19 254.848 136.176C250.317 145.336 242.694 152.792 234.88 159.721C226.182 167.413 216.813 174.796 205.754 178.968C191.853 184.21 176.435 183.993 161.651 186.133C146.867 188.274 131.142 193.879 124 206.305C127.437 200.319 134.618 194.732 139.974 190.287C145.965 185.317 152.474 180.891 159.366 177.081C170.925 170.696 182.33 167.957 194.963 164.565C204.102 162.116 213.222 158.669 221.21 153.681Z" fill="#45387D"/>
</svg>
