<svg width="999" height="322" viewBox="0 0 999 322" fill="none" xmlns="http://www.w3.org/2000/svg">
<path d="M7.39724 69.1702C9.68204 91.301 11.9476 113.432 14.2324 135.563C50.1556 144.088 88.0948 144.941 124.421 138.084C130.124 137.014 135.845 135.726 140.972 133.132C146.54 130.32 151.128 126.094 156.216 122.592C174.744 109.822 198.725 107.047 221.535 104.706C248.933 101.877 276.524 99.0649 304.018 100.752C317.976 101.605 331.666 104.725 345.567 105.704C349.599 105.994 353.381 104.761 357.375 104.779C368.453 104.852 380.127 107.827 390.898 110.04C405.125 112.96 419.18 116.624 432.946 121.069C441.778 123.917 450.706 127.2 457.1 132.696C464.76 139.281 467.756 148.152 473.458 155.771C486.764 173.602 514.7 183.38 541.253 183.38C559.128 183.38 576.293 179.607 593.362 176.359C597.317 175.598 601.253 174.836 605.362 174.727C610.143 174.6 614.828 175.289 619.57 174.691C627.154 173.747 634.565 171.407 641.842 169.666C649.829 167.761 657.816 165.838 665.804 163.934C683.909 159.598 704.972 155.553 721.273 163.625C724.536 165.258 727.704 167.761 727.455 170.7C727.186 173.765 723.327 175.797 721.618 178.554C719.103 182.636 721.829 187.806 726.418 190.835C731.007 193.865 737.036 195.207 742.872 196.332C751.877 198.055 761.823 199.343 769.887 196.132C785.669 189.856 785.977 170.029 802.661 165.24C813.125 162.228 824.78 166.8 834.668 171.226C837.874 172.659 841.311 174.418 843.404 176.813C845.784 179.552 844.287 181.384 844.748 184.232C845.362 187.987 850.22 187.878 854.156 187.842C859.57 187.788 865.56 187.243 870.572 189.402C878.271 192.722 877.637 200.322 883.09 204.93C886.45 207.778 891.615 208.866 896.492 209.538C930.936 214.308 970.277 206.272 998.386 222.635C990.034 204.803 960.581 199.016 935.986 198.726C924.581 198.599 911.871 198.69 903.308 192.74C898.988 189.747 896.396 185.611 893.631 181.693C888.696 174.691 882.917 168.015 876.409 161.775C870.879 156.478 865.1 149.875 856.191 148.206C839.66 145.086 835.57 129.359 819.807 125.277C809.727 122.665 796.268 125.858 789.913 119.291C787.973 117.296 787.282 114.81 786.207 112.489C781.656 102.657 769.983 95.3643 757.33 91.3736C744.658 87.3828 730.93 86.2218 717.413 85.0971C710.309 84.5166 701.592 84.5166 698.213 89.2149C696.524 91.5731 696.773 94.5118 697.695 97.1602C699.98 103.745 705.893 109.26 709.983 115.336C714.073 121.432 716.146 129.232 710.904 134.547C705.816 139.699 696.12 140.406 687.538 140.46C678.591 140.533 669.625 140.333 660.658 139.916C648.562 139.336 636.466 138.32 624.466 136.869C615.711 135.798 607.244 134.51 598.565 136.161C592.287 137.34 586.508 139.245 579.961 139.662C568.748 140.388 556.69 138.81 546.476 134.964C528.159 128.071 513.394 111.509 519.192 95.8904C521.055 90.8656 524.914 85.9678 523.647 80.7617C522.821 77.4057 519.98 74.5215 517.157 71.8368C513.413 68.245 509.573 64.7622 505.599 61.4063C492.312 50.1413 478.834 40.7267 461.631 35.9558C453.221 33.6158 445.656 30.0785 437.746 26.5775C427.551 22.0606 416.799 18.8317 406.085 15.639C400.268 13.9157 394.181 12.1562 388.191 13.2083C378.552 14.8953 371.564 24.0923 371.295 33.3618C371.026 42.6314 376.536 51.4655 384.236 57.2159C385.887 58.4494 387.788 59.7737 388.172 61.7328C388.479 63.2565 387.749 64.7984 386.885 66.1408C379.34 77.7504 362.501 79.5281 348.082 79.5281C332.837 79.5463 317.592 78.9839 302.386 77.8774C278.636 76.1359 255 73.0159 231.653 68.5716C221.362 66.6124 209.112 65.4515 199.743 60.7714C196.882 59.3383 194.367 57.4336 191.314 56.3271C187.224 54.8396 182.693 54.4042 178.412 53.86C164.472 52.0642 150.322 51.7014 136.306 52.7716C126.476 53.5154 115.762 54.8214 107.218 50.7944C96.8116 45.8966 94.3348 35.4842 89.3428 26.9947C78.7444 8.9998 51.3844 -1.37628 26.5204 0.14748C13.8484 0.90936 5.24684 6.44206 1.19564 17.9791C-1.24276 24.9086 0.446838 29.9696 2.71244 36.6089C5.99564 46.2049 6.09164 56.708 7.12844 66.685C7.22444 67.5194 7.30124 68.3357 7.39724 69.1702Z" fill="#45387D"/>
<path d="M804.774 305.282C807.807 305.699 810.899 305.898 813.855 306.025C817.811 306.189 821.939 306.334 825.567 304.828C829.196 303.323 832.134 299.622 831.251 295.976C830.598 293.255 828.102 291.296 826.892 288.738C823.839 282.28 830.559 274.825 837.913 273.464C845.267 272.104 852.697 274.698 859.974 276.439C870.553 278.979 885.913 279.741 893.094 270.326C899.66 261.709 915.443 260.294 924.447 266.77C909.068 269.292 900.102 283.913 889.388 294.652C863.027 321.082 819.635 326.233 782.06 318.506C777.126 317.49 772.134 316.238 767.967 313.572C759.558 308.184 755.718 297.808 746.924 292.983C739.475 288.901 730.22 289.754 721.714 291.024C709.714 292.838 693.414 295.178 686.732 282.77C679.609 269.546 696.102 264.829 706.354 262.381C715.014 260.313 722.943 260.168 731.583 260.258C734.425 260.276 737.094 259.025 739.878 258.535C745.676 257.519 751.724 257.991 757.35 259.605C768.601 262.834 778.604 270.888 782.06 281.718C783.673 286.779 784.095 292.312 787.187 296.701C791.007 302.107 797.708 304.32 804.774 305.282Z" fill="#45387D"/>
</svg>
