<svg width="1920" height="719" viewBox="0 0 1920 719" fill="none" xmlns="http://www.w3.org/2000/svg">
<path d="M1775.25 0.452637L1804.44 22.6161L1822.4 15.4724L1775.25 0.452637Z" fill="#5D7EE7"/>
<path d="M1362.05 571.216L1680.93 564.779L1676.39 481.052L1668.29 331.368L1667.46 315.874L1665.12 310.682L1650.61 278.323L1629.28 182.84L1568.87 170.008L1568.65 169.966L1548.59 242.49L1537.21 283.689L1451.88 348.061L1362.05 571.216Z" fill="url(#paint0_linear)"/>
<path d="M1537.21 283.688L1559.67 313.371L1579.88 418.512L1533.47 328.748L1451.88 348.061L1537.21 283.688Z" fill="#2F46CC"/>
<path d="M1340.72 481.095L1402.61 497.532L1424.19 503.26L1443.28 475.023L1372.16 470.731L1340.72 481.095Z" fill="url(#paint1_linear)"/>
<path d="M1340.72 481.095L1343.52 544.662L1409.49 546.539L1424.18 503.267L1340.72 481.095Z" fill="#4A6ABB"/>
<path d="M1424.18 503.267L1387.5 493.612L1390.49 530.089L1413.33 532.949L1424.18 503.267Z" fill="#3C3CA6"/>
<path d="M1568.65 169.966L1601.21 195.714L1627.04 512.209L1676.39 481.053L1689.91 472.513L1668.29 331.368L1665.12 310.682L1650.61 278.323L1629.28 182.84L1568.65 169.966Z" fill="#2F46CC"/>
<path d="M1402.23 570.404L1410.29 558.41L1411.41 556.757L1411.66 556.392L1414.22 552.615L1416.29 549.526L1432.21 525.902L1505.77 416.727L1509.43 415.655L1569.35 398.167L1575.61 396.342L1586.62 393.124L1587.42 391.794L1613.68 348.471L1636.02 311.587L1643.77 282.726L1645.23 277.341L1648.06 266.826L1672.82 174.581L1678.69 152.802L1724.29 123.749L1739.32 114.18L1775.25 0.455078L1822.41 15.4769L1832.08 93.1077L1833.63 105.597L1878.55 159.239L1894.27 253.651L1920 274.954V602.348L1818.97 596.712L1816.57 596.583L1744.66 592.57L1682.44 589.094L1400.23 573.365L1402.23 570.404Z" fill="#2A2A93"/>
<path d="M1411.66 556.39L1892.76 577.652L1897.25 547.613L1870.3 416.015L1835.88 304.438L1834.37 152.798L1807.42 119.904L1804.44 22.6161L1775.25 0.452637L1739.31 114.176L1678.68 152.798L1636.02 311.582L1586.61 393.12L1505.77 416.722L1411.66 556.39Z" fill="url(#paint2_linear)"/>
<path d="M1920 274.954V430.376L1901.99 306.738L1897.81 277.983L1894.27 253.651L1920 274.954Z" fill="#212184"/>
<path d="M1393.49 549.758L1411.61 549.566L1665.04 546.925L1804.43 545.467L1871.79 540.102C1871.79 540.102 1832.5 360.934 1811.16 341.623C1793.15 325.314 1644.99 277.251 1644.99 277.251L1642.07 281.606L1573.13 384.537L1485.55 412.431L1401.52 537.755L1393.49 549.758Z" fill="#2A2A93"/>
<path d="M1401.53 537.764L1411.61 549.566L1418.19 557.269L1665.05 546.925L1802.19 541.175L1783.1 427.453L1747.18 402.776L1737.07 344.841L1642.08 281.606L1573.14 384.537L1485.56 412.431L1401.53 537.764Z" fill="url(#paint3_linear)"/>
<path d="M1485.56 412.431L1588.86 426.379L1630.4 536.884L1710.12 531.519L1627.04 411.895L1573.14 384.537L1485.56 412.431Z" fill="#212184"/>
<path d="M1783.1 427.453L1804.44 545.467L1886.96 533.665L1844.86 431.475L1783.1 427.453Z" fill="#212184"/>
<path d="M-0.00012207 655.277L150.273 651.831H150.407L190.593 667.773L189.089 667.839L188.146 679.725L188.414 679.812L203.248 684.231L201.069 672.062L206.683 671.526L203.314 650.603L228.016 624.855L277.42 629.146L274.859 616.894L267.853 583.421L263.946 564.774L331.312 543.321L641.028 564.136L899.678 581.515L901.969 581.666C904.731 581.858 906.191 581.944 906.191 581.944L960.085 547.613L1054.38 553.727L1225.07 564.778L1225.04 564.65L1221.63 540.098L1220.58 532.589L1303.18 521.325L1377.78 511.132L1429.43 526.152L1501.29 519.715L1615.82 536.88L1920 517.633V718.391H-0.00012207V655.277Z" fill="url(#paint4_linear)"/>
<path d="M964.198 636.704L1077.4 663.052L1080.97 663.889L1178.27 691.076L1180.16 693.008L1204.77 718.391H1410.56L1419.32 716.824L1304.03 703.95L1301.26 703.113L1220.2 678.202L1219.55 678.159L1179.78 675.326L1085.46 651.015L1077.6 650.093L964.198 636.704Z" fill="#4A6ABB"/>
<path d="M1179.78 675.326L1179.87 679.554L1180.16 693.008L1204.77 718.392H1214.4L1219.55 678.16L1179.78 675.326Z" fill="#3C3CA6"/>
<path style="mix-blend-mode:screen" opacity="0.35" d="M1220.58 532.593L1221.63 540.102L1395.74 596.965C1318.74 555.574 1303.91 532.507 1303.17 521.329L1220.58 532.593Z" fill="url(#paint5_linear)"/>
<path d="M1301.26 703.113L1302.21 718.391H1410.56L1419.32 716.824L1304.03 703.95L1301.26 703.113Z" fill="#3C3CA6"/>
<path d="M964.197 636.704L1077.4 663.052L1077.6 650.093L964.197 636.704Z" fill="#3C3CA6"/>
<g style="mix-blend-mode:overlay" opacity="0.5">
<path d="M-0.000244141 655.277L150.273 651.831H150.407L190.593 667.773L189.089 667.839L188.147 679.725L188.414 679.812L203.248 684.231L201.069 672.062L206.684 671.526L203.315 650.603L228.016 624.855L277.42 629.146L274.859 616.894C281.012 619.191 286.83 622.366 289.703 627.88C297.924 643.694 275.085 660.902 278.835 678.198C289.84 686.631 304.188 689.635 316.876 695.513C327.048 700.255 336.884 708.432 339.713 718.387H98.4891C81.8945 708.173 65.7487 697.274 48.4799 688.175C33.2603 680.232 16.9368 674.399 -0.000244141 670.851V655.277Z" fill="white"/>
</g>
<path d="M1299.17 561.473L1313.84 566.86L1395.74 596.965L1598.96 599.068L1602.33 599.111L1668.62 617.692L1694.83 625.051L1800.19 654.6L1808.93 657.044L1920 666.957V718.391H1702.24L1689.06 714.38L1681.04 711.933L1598.96 686.934L1516.93 661.938L1506.58 658.782L1458.61 644.17L1401.89 635.244L1303.64 619.774L1301.02 619.366L1267.74 614.131L1254.26 581.944L1225.05 564.65L1222.82 563.341L1220.58 532.593L1299.17 561.473Z" fill="#4A6ABB"/>
<path d="M1800.19 654.6L1808.93 657.044L1920 666.957V718.391H1814.84L1799.95 654.899L1800.19 654.6Z" fill="#2A2A93"/>
<path d="M1395.74 596.966L1401.89 635.244L1458.61 644.17L1506.58 658.782L1500.16 632.37L1516.93 661.938L1598.96 686.935V599.069L1395.74 596.966Z" fill="#2A2A93"/>
<path d="M1598.97 599.068L1692.16 601.257L1893.14 567.998L1711.25 587.309L1529.91 598.573L1598.97 599.068Z" fill="#2A2A93"/>
<path d="M1254.26 581.944L1213.09 604.833L1054.4 611.27H1225.07L1267.74 614.131L1254.26 581.944Z" fill="#3C3CA6"/>
<path d="M1668.62 617.692L1681.04 711.933L1689.06 714.38L1694.83 625.051L1668.62 617.692Z" fill="#2A2A93"/>
<path d="M1668.62 617.692L1723.04 616.812L1842.05 591.064L1728.09 618.958L1694.83 625.051L1668.62 617.692Z" fill="#3C3CA6"/>
<path d="M1299.17 561.196V561.473L1301.02 619.366L1303.64 619.774L1313.21 566.924L1313.84 566.86L1443.63 555.487L1299.17 561.196Z" fill="#3C3CA6"/>
<path d="M201.068 672.064L203.247 684.231L295.946 711.783L318.177 718.391H384.828L291.949 694.981L201.068 672.064Z" fill="#4A6ABB"/>
<path d="M203.314 650.607L206.683 671.528L254.583 668.846L203.314 650.607Z" fill="#3C3CA6"/>
<path d="M153.913 669.555L188.136 679.724L189.078 667.839L153.913 669.555Z" fill="#4A6ABB"/>
<path d="M153.912 669.555L188.437 679.844L190.473 667.64L153.912 669.555Z" fill="#3C3CA6"/>
<path d="M291.949 694.981L295.945 711.784L318.177 718.391H384.828L291.949 694.981Z" fill="#3C3CA6"/>
<g style="mix-blend-mode:overlay" opacity="0.5">
<path d="M901.971 581.666L899.68 581.514C900.511 581.578 901.296 581.623 901.971 581.666Z" fill="white"/>
</g>
<g style="mix-blend-mode:overlay" opacity="0.5">
<path d="M263.947 564.778L267.854 583.425C325.658 594.777 405.197 609.925 399.426 606.255C390.442 600.548 381.46 578.361 364.258 561.924C348.135 546.518 837.253 577.509 899.682 581.515L331.313 543.322L263.947 564.778Z" fill="white"/>
</g>
<path d="M263.946 564.778L389.773 601.703L521.517 611.716L728.113 661.784H810.452L940.697 694.684L807.458 668.936L722.125 673.228L515.529 621.729L384.087 614.398L276.859 629.42L263.946 564.778Z" fill="#3C3CA6"/>
<path style="mix-blend-mode:screen" opacity="0.5" d="M641.03 564.135C739.791 574.456 900.826 591.408 912.187 593.385C923.955 595.445 1007.63 568.988 1054.38 553.732L960.087 547.617L906.193 581.948C906.193 581.948 904.733 581.862 901.971 581.67L899.68 581.519L641.03 564.135Z" fill="url(#paint6_linear)"/>
<path d="M1807.42 119.904L1834.37 152.798L1878.54 159.237L1833.63 105.593L1807.42 119.904Z" fill="#2F46CC"/>
<path d="M1737.07 344.841L1747.18 402.776L1839.62 416.009L1827.64 380.245L1737.07 344.841Z" fill="#212184"/>
<path d="M1835.88 304.438L1902.87 306.755L1898.29 277.787L1835.88 304.438Z" fill="#212184"/>
<path d="M1739.31 114.176L1698.89 266.523L1724.35 123.474L1739.31 114.176Z" fill="#2A2A93"/>
<path d="M1807.42 119.904L1796.58 203.222L1815.11 129.195L1807.42 119.904Z" fill="#2F46CC"/>
<path d="M1868.66 410.718L1920 447.498V517.389L1891.1 517.577H1890.51L1868.06 410.289L1868.66 410.718Z" fill="#212184"/>
<path d="M1851.97 355.213L1895.76 385.968L1856.09 370.233L1841.12 383.107L1851.97 355.213Z" fill="#212184"/>
<path d="M1822.4 15.4727L1804.44 22.6164L1807.42 119.904L1807.25 24.5912L1822.4 15.4727Z" fill="#212184"/>
<path d="M1861.14 230.582L1834.75 211.269L1819.03 223.071L1834.57 199.469L1861.14 230.582Z" fill="#212184"/>
<path d="M1573.14 384.537L1627.04 411.895L1588.86 426.379L1485.56 412.431L1573.14 384.537Z" fill="#2F46CC"/>
<path d="M1737.07 344.841L1698.89 407.424L1707.88 508.275L1707.13 408.855L1741.56 370.232L1737.07 344.841Z" fill="#212184"/>
<path d="M1747.17 402.776L1745.49 476.267L1756.72 409.034L1747.17 402.776Z" fill="#2A2A93"/>
<g style="mix-blend-mode:overlay" opacity="0.5">
<path d="M1741.56 370.232L1707.13 408.855L1707.88 508.275L1712.37 410.285L1741.56 370.232Z" fill="white"/>
</g>
<g style="mix-blend-mode:overlay" opacity="0.5">
<path d="M1835.88 304.438L1834.76 211.269L1819.04 223.071L1832.13 215.025L1835.88 304.438Z" fill="white"/>
</g>
<g style="mix-blend-mode:overlay" opacity="0.5">
<path d="M1834.37 152.798L1815.11 129.195L1796.58 203.222L1815.47 138.314L1834.37 152.798Z" fill="white"/>
</g>
<path d="M1676.38 304.438L1672.31 405.458L1663.05 292.271L1676.38 304.438Z" fill="#2A2A93"/>
<g style="mix-blend-mode:overlay" opacity="0.5">
<path d="M1737.07 344.841L1676.37 304.438L1672.3 405.458L1678.4 309.17L1737.07 344.841Z" fill="white"/>
</g>
<path d="M1550.5 421.193L1586.23 410.24L1527.48 417.975L1533.47 508.811L1550.5 421.193Z" fill="#2A2A93"/>
<g style="mix-blend-mode:overlay" opacity="0.5">
<path d="M1588.86 426.379L1550.5 421.193L1533.47 508.812L1553.68 424.234L1588.86 426.379Z" fill="white"/>
</g>
<path d="M1537.21 283.688L1533.47 328.748L1451.88 348.061L1537.21 283.688Z" fill="url(#paint7_linear)"/>
<path d="M1591.85 186.057L1582.49 309.795L1582.12 177.833L1591.85 186.057Z" fill="#4556ED"/>
<path d="M1503.9 336.973L1517.37 306.219L1491.92 339.478L1493.04 400.631L1503.9 336.973Z" fill="#4556ED"/>
<path style="mix-blend-mode:screen" opacity="0.2" d="M1340.72 481.095L1402.61 497.534C1380.89 486.646 1372.16 470.733 1372.16 470.733L1340.72 481.095Z" fill="url(#paint8_linear)"/>
<path style="mix-blend-mode:screen" opacity="0.15" d="M1548.6 242.5C1558.19 237.825 1566.33 230.817 1572.2 222.181C1586.23 200.191 1601.39 195.895 1601.39 195.895L1568.87 170.019L1568.65 169.976L1548.6 242.5Z" fill="url(#paint9_linear)"/>
<path d="M1568.65 169.966L1601.21 195.714L1629.28 182.84L1568.65 169.966Z" fill="#4556ED"/>
<defs>
<linearGradient id="paint0_linear" x1="1590.54" y1="444.313" x2="1342.78" y2="252.173" gradientUnits="userSpaceOnUse">
<stop stop-color="#564CD8"/>
<stop offset="0.134" stop-color="#5256D9"/>
<stop offset="0.36" stop-color="#4970DA"/>
<stop offset="0.65" stop-color="#399BDD"/>
<stop offset="0.991" stop-color="#24D6E0"/>
<stop offset="0.995" stop-color="#24D7E0"/>
</linearGradient>
<linearGradient id="paint1_linear" x1="1443.28" y1="486.996" x2="1340.72" y2="486.996" gradientUnits="userSpaceOnUse">
<stop stop-color="#8A96FF"/>
<stop offset="0.481" stop-color="#8A96FF"/>
</linearGradient>
<linearGradient id="paint2_linear" x1="1763.95" y1="489.152" x2="1490.05" y2="105.605" gradientUnits="userSpaceOnUse">
<stop offset="0.011" stop-color="#2E2EA8"/>
<stop offset="0.241" stop-color="#3060BF"/>
<stop offset="0.607" stop-color="#33AAE1"/>
<stop offset="0.869" stop-color="#35D9F7"/>
<stop offset="1" stop-color="#36EBFF"/>
</linearGradient>
<linearGradient id="paint3_linear" x1="1641.38" y1="552.228" x2="1443.38" y2="219.052" gradientUnits="userSpaceOnUse">
<stop offset="0.011" stop-color="#2B2BA1"/>
<stop offset="0.995" stop-color="#32DBED"/>
</linearGradient>
<linearGradient id="paint4_linear" x1="1877.81" y1="706.525" x2="-41.8511" y2="504.086" gradientUnits="userSpaceOnUse">
<stop stop-color="#4B3DA2"/>
<stop offset="0.186" stop-color="#4571BE"/>
<stop offset="0.371" stop-color="#3F9DD5"/>
<stop offset="0.55" stop-color="#3BBFE7"/>
<stop offset="0.718" stop-color="#38D7F4"/>
<stop offset="0.872" stop-color="#37E6FC"/>
<stop offset="1" stop-color="#36EBFF"/>
</linearGradient>
<linearGradient id="paint5_linear" x1="-43788.1" y1="25085" x2="-53986.8" y2="18665.4" gradientUnits="userSpaceOnUse">
<stop/>
<stop offset="0.038" stop-color="#101010"/>
<stop offset="0.194" stop-color="#4F4F4F"/>
<stop offset="0.348" stop-color="#848484"/>
<stop offset="0.497" stop-color="#B0B0B0"/>
<stop offset="0.639" stop-color="#D3D3D3"/>
<stop offset="0.774" stop-color="#EBEBEB"/>
<stop offset="0.898" stop-color="#FAFAFA"/>
<stop offset="1" stop-color="white"/>
</linearGradient>
<linearGradient id="paint6_linear" x1="-159212" y1="15723.2" x2="-235742" y2="15723.2" gradientUnits="userSpaceOnUse">
<stop/>
<stop offset="0.038" stop-color="#101010"/>
<stop offset="0.194" stop-color="#4F4F4F"/>
<stop offset="0.348" stop-color="#848484"/>
<stop offset="0.497" stop-color="#B0B0B0"/>
<stop offset="0.639" stop-color="#D3D3D3"/>
<stop offset="0.774" stop-color="#EBEBEB"/>
<stop offset="0.898" stop-color="#FAFAFA"/>
<stop offset="1" stop-color="white"/>
</linearGradient>
<linearGradient id="paint7_linear" x1="-13093.8" y1="13896.3" x2="-16355.4" y2="13896.3" gradientUnits="userSpaceOnUse">
<stop stop-color="#8A96FF"/>
<stop offset="0.481" stop-color="#8A96FF"/>
</linearGradient>
<linearGradient id="paint8_linear" x1="-12940" y1="8250.3" x2="-14655.7" y2="8250.3" gradientUnits="userSpaceOnUse">
<stop/>
<stop offset="0.038" stop-color="#101010"/>
<stop offset="0.194" stop-color="#4F4F4F"/>
<stop offset="0.348" stop-color="#848484"/>
<stop offset="0.497" stop-color="#B0B0B0"/>
<stop offset="0.639" stop-color="#D3D3D3"/>
<stop offset="0.774" stop-color="#EBEBEB"/>
<stop offset="0.898" stop-color="#FAFAFA"/>
<stop offset="1" stop-color="white"/>
</linearGradient>
<linearGradient id="paint9_linear" x1="-6209.81" y1="12400.5" x2="-7430.45" y2="11854.4" gradientUnits="userSpaceOnUse">
<stop/>
<stop offset="0.038" stop-color="#101010"/>
<stop offset="0.194" stop-color="#4F4F4F"/>
<stop offset="0.348" stop-color="#848484"/>
<stop offset="0.497" stop-color="#B0B0B0"/>
<stop offset="0.639" stop-color="#D3D3D3"/>
<stop offset="0.774" stop-color="#EBEBEB"/>
<stop offset="0.898" stop-color="#FAFAFA"/>
<stop offset="1" stop-color="white"/>
</linearGradient>
</defs>
</svg>
