<svg width="1119" height="1586" viewBox="0 0 1119 1586" fill="none" xmlns="http://www.w3.org/2000/svg">
<path d="M44.8727 315.525C136.649 490.419 296.898 258.896 387.216 198.512C585.574 65.882 795.183 247.105 733.233 486.008C666.358 743.91 541.462 605.612 439.875 568.765C274.36 516.151 214.144 747.156 262.618 958.599C326.329 1236.51 501.934 1295.01 426.689 1469.75C358.974 1623.3 615 1583 640 1573C665 1563 813.578 1511.59 696.233 1376.7C536.33 1192.86 639.733 894.223 782.456 1080.25C920.943 1260.74 1052.91 1271.27 1118.88 1201.35L1118.88 -3.73352e-05L76.3183 1.87251C3.94998 40.4703 -35.2982 162.726 44.8727 315.525Z" fill="#191760"/>
</svg>
