<svg width="528" height="266" viewBox="0 0 528 266" fill="none" xmlns="http://www.w3.org/2000/svg">
<g style="mix-blend-mode:multiply" opacity="0.2">
<g style="mix-blend-mode:multiply" opacity="0.2">
<path d="M239.791 14.7787C214.539 17.4861 190.675 27.4612 171.215 43.4424C151.756 59.4236 137.577 80.6933 130.47 104.561C123.362 128.43 123.647 153.824 131.288 177.534C138.929 201.244 153.582 222.204 173.395 237.763C193.208 253.323 217.29 262.783 242.597 264.947C267.904 267.111 293.298 261.883 315.568 249.922C337.838 237.962 355.984 219.807 367.711 197.754C379.438 175.7 384.219 150.739 381.45 126.026C377.735 92.8914 360.724 62.5575 334.159 41.6954C307.594 20.8333 273.649 11.1513 239.791 14.7787Z" fill="#09062B"/>
</g>
<g style="mix-blend-mode:multiply" opacity="0.3">
<path d="M133.267 96.3052C133.267 96.3052 146.423 73.3431 180.814 59.6386C215.206 45.9342 253.791 49.7793 263.493 60.1112C279.522 77.2087 189.753 55.9873 193.206 130.548C194.363 155.556 147.652 149.726 138.165 130.548C128.678 111.37 184.809 91.6782 179.081 85.6708C166.057 72.0139 129.425 115.215 125.968 127.556C126.969 116.868 129.424 106.358 133.267 96.3052Z" fill="#09062B"/>
</g>
<g style="mix-blend-mode:multiply" opacity="0.3">
<path d="M146.085 71.2866C146.127 71.2186 146.172 71.1676 146.217 71.0996C146.968 70.1441 147.654 69.1413 148.271 68.0976C163.15 47.1313 184.194 31.0913 208.609 22.1082C233.025 13.1251 259.655 11.6242 284.962 17.8047C290.211 26.0798 299.778 45.2171 277.9 47.6513C249.882 50.7621 204.009 12.7322 146.085 71.2866Z" fill="#09062B"/>
</g>
<g style="mix-blend-mode:multiply" opacity="0.3">
<path d="M288.089 71.3406C312.924 55.5588 307.095 34.5483 300.942 22.8564C304.416 24.2164 307.89 25.6918 311.322 27.3645C330.724 36.8449 347.341 51.0017 359.61 68.5018C362.283 80.0882 362.579 92.0786 360.482 103.778C353.881 144.915 319.309 119.974 314.848 106.889C310.388 93.803 293.195 93.7995 268.993 117.486C244.79 141.172 200.046 159.983 206.577 123.826C213.108 87.6698 251.786 94.3979 288.089 71.3406Z" fill="#09062B"/>
</g>
<g style="mix-blend-mode:multiply" opacity="0.3">
<path d="M204.659 201.121C211.027 182.568 202.109 176.041 177.271 194.739C162.281 206.03 147.246 200.179 137.668 193.743C132.788 183.754 129.345 173.151 127.438 162.237C127.438 162.237 166.443 186.036 184.914 166.691C203.384 147.346 211.027 157.78 228.223 162.237C245.419 166.695 286.338 117.7 306 124.435C325.663 131.17 339.002 151.232 291.625 166.076C188.103 198.486 241.292 253.11 184.629 245.631C174.014 239.128 164.496 231.05 156.417 221.686C179.129 227.846 199.115 217.27 204.659 201.121Z" fill="#09062B"/>
</g>
<g style="mix-blend-mode:multiply" opacity="0.3">
<path d="M316.113 179.794C312.927 173.559 319.934 169.2 349.869 152.368C358.374 147.801 365.44 141.043 370.299 132.826C375.158 124.608 377.626 115.246 377.434 105.753C383.004 125.11 383.735 145.494 379.567 165.185C362.872 183.996 318.84 185.125 316.113 179.794Z" fill="#09062B"/>
</g>
<g style="mix-blend-mode:multiply" opacity="0.3">
<path d="M217.631 260.317C221.602 260.579 238.561 259.43 239.687 220.921C240.225 202.388 277.237 181.483 296.923 194.872C326.941 215.311 365.311 196.592 373.551 184.978C373.471 185.223 373.37 185.458 373.29 185.709C371.901 189.174 370.355 192.614 368.614 196.014C361.497 209.943 351.787 222.45 339.982 232.895C309.759 248.962 291.445 212.935 279.814 225.969C271.574 235.21 302.881 251.07 282.378 262.255C260.983 267.053 238.687 266.385 217.631 260.317Z" fill="#09062B"/>
</g>
<g style="mix-blend-mode:multiply" opacity="0.5">
<path d="M183.618 78.1911C154.784 60.0703 134.052 94.2856 134.031 94.3332C123.71 120.432 122.583 149.155 130.829 175.951C139.075 202.747 156.223 226.084 179.555 242.263C202.887 258.443 231.069 266.54 259.634 265.27C288.2 264.001 315.517 253.439 337.255 235.257C138.154 248.969 268.982 131.795 183.618 78.1911Z" fill="#09062B"/>
</g>
<g style="mix-blend-mode:multiply" opacity="0.5">
<path d="M257.216 176.326C243.543 158.987 219.351 175.67 240.35 199.4C261.35 223.13 291.014 219.183 257.216 176.326Z" fill="#09062B"/>
</g>
<g style="mix-blend-mode:multiply" opacity="0.2">
<path d="M353.051 83.4236C323.905 24.2335 257.984 14.126 257.984 14.126H258.012C283.077 14.9295 307.354 22.8985 327.845 37.0493C348.336 51.2001 364.144 70.9132 373.319 93.7556C382.494 116.598 384.633 141.57 379.473 165.588C374.313 189.607 362.08 211.621 344.283 228.914C368.628 196.374 382.197 142.621 353.051 83.4236Z" fill="#09062B"/>
</g>
<g style="mix-blend-mode:multiply" opacity="0.2">
<g style="mix-blend-mode:multiply" opacity="0.2">
<path d="M0.101379 123.038C2.75201 102.367 57.0736 90.7159 135.511 90.5562C133.619 94.9259 131.981 99.3969 130.606 103.948C86.6783 106.532 58.0011 114.793 56.3267 127.746C53.3009 151.378 141.253 181.626 252.777 195.31C364.3 208.994 457.164 200.943 460.19 177.291C462.003 163.114 431.009 146.554 381.878 132.611C381.568 127.226 381.033 122.677 380.471 119.111C463.379 138.619 518.652 164.549 515.863 186.324C511.913 217.133 393.255 227.945 250.831 210.463C108.408 192.981 -3.85541 153.85 0.101379 123.038Z" fill="#09062B"/>
</g>
</g>
</g>
<path d="M251.239 0.74523C225.98 3.44764 202.11 13.4043 182.646 29.356C163.182 45.3077 148.999 66.538 141.89 90.3621C134.781 114.186 135.065 139.534 142.708 163.2C150.35 186.866 165.007 207.788 184.824 223.319C204.642 238.85 228.73 248.292 254.043 250.453C279.356 252.614 304.756 247.395 327.032 235.457C349.308 223.52 367.459 205.399 379.19 183.386C390.92 161.374 395.703 136.458 392.934 111.791C389.217 78.7169 372.202 48.4386 345.63 27.6144C319.059 6.79022 285.106 -2.87464 251.239 0.74523Z" fill="url(#paint0_linear)"/>
<path opacity="0.3" d="M144.07 81.0731C144.07 81.0731 157.253 57.9889 191.719 44.2081C226.184 30.4273 264.848 34.2963 274.575 44.6832C290.641 61.8716 200.68 40.5373 204.14 115.498C205.299 140.636 158.489 134.778 148.978 115.498C139.467 96.2176 195.726 76.4179 189.985 70.382C176.933 56.6491 140.223 100.08 136.759 112.49C137.759 101.745 140.218 91.1789 144.07 81.0731Z" fill="#020628"/>
<path opacity="0.3" d="M157.796 56.3465C157.837 56.2829 157.882 56.2294 157.927 56.1658C158.675 55.2251 159.357 54.2376 159.969 53.2097C174.793 32.5635 195.76 16.7684 220.085 7.92277C244.41 -0.922894 270.942 -2.40053 296.156 3.68616C301.385 11.8346 310.917 30.6759 289.12 33.0762C261.203 36.1361 215.501 -1.30872 157.796 56.3465Z" fill="#020628"/>
<path opacity="0.3" d="M300.229 56.6626C325.122 40.9065 319.28 19.9379 313.111 8.26416C316.592 9.62157 320.074 11.0944 323.514 12.764C342.958 22.2278 359.612 36.3583 371.908 53.8256C374.589 65.3916 374.886 77.3615 372.782 89.0403C366.167 130.102 331.522 105.207 327.051 92.142C322.581 79.0769 305.35 79.0802 281.094 102.719C256.838 126.359 211.998 145.139 218.544 109.052C225.089 72.9651 263.85 79.6775 300.229 56.6626Z" fill="#020628"/>
<path opacity="0.3" d="M215.907 185.943C222.309 167.287 213.34 160.723 188.37 179.526C173.299 190.876 158.182 184.996 148.552 178.524C143.645 168.478 140.182 157.815 138.262 146.839C138.262 146.839 177.483 170.77 196.054 151.321C214.625 131.872 222.31 142.361 239.599 146.839C256.888 151.318 298.03 102.054 317.799 108.826C337.568 115.599 350.981 135.776 303.346 150.699C199.261 183.29 252.739 238.219 195.747 230.697C185.076 224.158 175.508 216.035 167.385 206.619C190.239 212.817 210.333 202.182 215.907 185.943Z" fill="#020628"/>
<path opacity="0.3" d="M327.539 164.054C324.352 157.893 331.363 153.591 361.318 136.96C369.829 132.449 376.899 125.771 381.762 117.653C386.625 109.534 389.094 100.284 388.902 90.9058C394.473 110.026 395.203 130.16 391.033 149.61C374.33 168.205 330.268 169.32 327.539 164.054Z" fill="#020628"/>
<path opacity="0.3" d="M229.168 245.782C233.147 246.042 250.145 244.883 251.273 206.044C251.813 187.352 288.903 166.266 308.633 179.77C338.722 200.386 377.177 181.505 385.436 169.791C385.355 170.038 385.254 170.271 385.174 170.528C383.782 174.023 382.232 177.493 380.488 180.922C373.354 194.971 363.622 207.587 351.792 218.122C321.502 234.332 303.146 197.989 291.49 211.137C283.231 220.461 314.605 236.454 294.059 247.74C272.616 252.578 250.27 251.903 229.168 245.782Z" fill="#020628"/>
<path opacity="0.5" d="M194.999 63.1595C166.168 44.981 145.438 79.3023 145.417 79.35C135.096 105.527 133.97 134.336 142.215 161.213C150.461 188.089 167.607 211.496 190.937 227.724C214.266 243.952 242.446 252.073 271.009 250.8C299.572 249.527 326.886 238.933 348.622 220.697C149.537 234.449 280.352 116.925 194.999 63.1595Z" fill="#2C285B"/>
<path opacity="0.5" d="M268.92 161.233C255.45 143.75 231.617 160.571 252.305 184.499C272.992 208.426 302.215 204.443 268.92 161.233Z" fill="#2C285B"/>
<path d="M364.418 68.8388C335.161 10.0406 268.986 0 268.986 0H269.017C294.178 0.798251 318.547 8.71445 339.116 22.7715C359.685 36.8286 375.554 56.4113 384.764 79.1023C393.973 101.793 396.121 126.6 390.941 150.459C385.762 174.319 373.482 196.187 355.617 213.365C380.055 181.038 393.676 127.644 364.418 68.8388Z" fill="white"/>
<path d="M11.5663 108.079C14.2169 87.4079 68.5385 75.7535 146.976 75.5938C145.084 79.9652 143.446 84.4373 142.067 88.9889C98.1431 91.5693 69.4625 99.8308 67.7916 112.787C64.7658 136.419 152.718 166.667 264.238 180.351C375.757 194.035 468.626 185.981 471.651 162.332C473.468 148.155 442.491 131.595 393.342 117.649C393.033 112.264 392.495 107.715 391.935 104.152C474.84 123.66 530.117 149.59 527.328 171.362C523.378 202.174 404.719 212.982 262.296 195.5C119.872 178.019 7.6095 138.891 11.5663 108.079Z" fill="url(#paint1_linear)"/>
<defs>
<linearGradient id="paint0_linear" x1="373.164" y1="57.3932" x2="160.352" y2="198.192" gradientUnits="userSpaceOnUse">
<stop stop-color="#EDC682"/>
<stop offset="0.034" stop-color="#EBBF80"/>
<stop offset="0.37" stop-color="#D98170"/>
<stop offset="0.654" stop-color="#CC5465"/>
<stop offset="0.873" stop-color="#C4385E"/>
<stop offset="1" stop-color="#C12E5B"/>
</linearGradient>
<linearGradient id="paint1_linear" x1="527.429" y1="139.737" x2="11.4655" y2="139.737" gradientUnits="userSpaceOnUse">
<stop stop-color="#F4F4BE"/>
<stop offset="1" stop-color="#13B8F0" stop-opacity="0.5"/>
</linearGradient>
</defs>
</svg>
